<?xml version="1.0" encoding="UTF-8" standalone="no"?>
<!-- Created with Inkscape (http://www.inkscape.org/) -->

<svg
   version="1.1"
   id="svg2"
   width="2666.6667"
   height="2666.6667"
   viewBox="0 0 2666.6667 2666.6667"
   sodipodi:docname="fideus-logo.svg"
   inkscape:version="1.2.2 (b0a8486541, 2022-12-01)"
   xmlns:inkscape="http://www.inkscape.org/namespaces/inkscape"
   xmlns:sodipodi="http://sodipodi.sourceforge.net/DTD/sodipodi-0.dtd"
   xmlns="http://www.w3.org/2000/svg"
   xmlns:svg="http://www.w3.org/2000/svg">
  <defs
     id="defs6">
    <clipPath
       clipPathUnits="userSpaceOnUse"
       id="clipPath18">
      <path
         d="M 0,2000 H 2000 V 0 H 0 Z"
         id="path16" />
    </clipPath>
    <clipPath
       clipPathUnits="userSpaceOnUse"
       id="clipPath140">
      <path
         d="M 0,2000 H 2000 V 0 H 0 Z"
         id="path138" />
    </clipPath>
    <clipPath
       clipPathUnits="userSpaceOnUse"
       id="clipPath160">
      <path
         d="M 0,2000 H 2000 V 0 H 0 Z"
         id="path158" />
    </clipPath>
    <clipPath
       clipPathUnits="userSpaceOnUse"
       id="clipPath292">
      <path
         d="M 0,2000 H 2000 V 0 H 0 Z"
         id="path290" />
    </clipPath>
    <clipPath
       clipPathUnits="userSpaceOnUse"
       id="clipPath416">
      <path
         d="M 0,2000 H 2000 V 0 H 0 Z"
         id="path414" />
    </clipPath>
    <clipPath
       clipPathUnits="userSpaceOnUse"
       id="clipPath438">
      <path
         d="M 0,2000 H 2000 V 0 H 0 Z"
         id="path436" />
    </clipPath>
  </defs>
  <sodipodi:namedview
     id="namedview4"
     pagecolor="#ffffff"
     bordercolor="#000000"
     borderopacity="0.25"
     inkscape:showpageshadow="2"
     inkscape:pageopacity="0.0"
     inkscape:pagecheckerboard="0"
     inkscape:deskcolor="#d1d1d1"
     showgrid="false"
     inkscape:zoom="0.38512498"
     inkscape:cx="3629.9904"
     inkscape:cy="1335.93"
     inkscape:window-width="3838"
     inkscape:window-height="2118"
     inkscape:window-x="0"
     inkscape:window-y="20"
     inkscape:window-maximized="1"
     inkscape:current-layer="g406">
    <inkscape:page
       x="0"
       y="0"
       id="page8"
       width="2666.6667"
       height="2666.6667" />
    <inkscape:page
       x="2686.6667"
       y="0"
       id="page130"
       width="2666.6667"
       height="2666.6667" />
    <inkscape:page
       x="5373.3333"
       y="0"
       id="page150"
       width="2666.6667"
       height="2666.6667" />
    <inkscape:page
       x="8060"
       y="0"
       id="page280"
       width="2666.6667"
       height="2666.6667" />
    <inkscape:page
       x="10746.667"
       y="0"
       id="page404"
       width="2666.6667"
       height="2666.6667" />
    <inkscape:page
       x="13433.333"
       y="0"
       id="page426"
       width="2666.6667"
       height="2666.6667" />
  </sodipodi:namedview>
  <g
     id="g10"
     inkscape:groupmode="layer"
     inkscape:label="Page 1"
     transform="matrix(1.3333333,0,0,-1.3333333,0,2666.6667)">
    <g
       id="g12"
       transform="matrix(2.4380034,0,0,2.4380034,-1434.8613,-1438.0033)">
      <g
         id="g14"
         clip-path="url(#clipPath18)">
        <g
           id="g20"
           transform="translate(720.192,667.2485)">
          <path
             d="m 0,0 c -1.44,0.739 -3.016,1.381 -4.728,1.926 -1.713,0.545 -3.385,0.817 -5.02,0.817 -2.258,0 -4.057,-0.525 -5.4,-1.575 -1.342,-1.052 -2.013,-2.453 -2.013,-4.204 0,-1.322 0.438,-2.442 1.313,-3.356 0.876,-0.915 2.004,-1.703 3.386,-2.364 1.38,-0.662 2.85,-1.285 4.407,-1.868 1.284,-0.467 2.568,-1.022 3.852,-1.664 1.284,-0.642 2.442,-1.429 3.473,-2.363 1.031,-0.935 1.848,-2.083 2.452,-3.444 0.603,-1.363 0.905,-3.036 0.905,-5.02 0,-2.257 -0.555,-4.3 -1.664,-6.129 -1.109,-1.83 -2.695,-3.27 -4.757,-4.32 -2.063,-1.051 -4.534,-1.577 -7.414,-1.577 -1.829,0 -3.589,0.206 -5.282,0.614 -1.693,0.408 -3.26,0.963 -4.699,1.663 -1.44,0.701 -2.724,1.421 -3.852,2.161 l 2.51,4.436 c 0.933,-0.663 2.003,-1.294 3.21,-1.897 1.206,-0.605 2.471,-1.08 3.794,-1.431 1.323,-0.35 2.607,-0.525 3.853,-0.525 1.361,0 2.685,0.233 3.969,0.7 1.284,0.468 2.354,1.206 3.21,2.219 0.856,1.011 1.285,2.353 1.285,4.027 0,1.401 -0.38,2.588 -1.139,3.561 -0.759,0.972 -1.751,1.799 -2.977,2.481 -1.225,0.68 -2.559,1.293 -3.998,1.838 -1.363,0.467 -2.714,1.012 -4.057,1.635 -1.342,0.622 -2.588,1.371 -3.736,2.247 -1.148,0.875 -2.082,1.955 -2.802,3.24 -0.72,1.284 -1.079,2.84 -1.079,4.67 0,2.217 0.534,4.153 1.605,5.807 1.069,1.655 2.539,2.958 4.407,3.912 1.868,0.953 4.007,1.468 6.421,1.546 2.723,0 5.126,-0.331 7.209,-0.992 2.081,-0.662 3.92,-1.459 5.516,-2.393 z"
             style="fill:#808080;fill-opacity:1;fill-rule:nonzero;stroke:none"
             id="path22" />
        </g>
        <g
           id="g24"
           transform="translate(763.3281,635.7276)">
          <path
             d="m 0,0 c -0.701,-0.467 -1.654,-0.993 -2.86,-1.577 -1.207,-0.583 -2.618,-1.07 -4.232,-1.459 -1.615,-0.388 -3.396,-0.584 -5.341,-0.584 -3.231,0.04 -6.158,0.623 -8.785,1.751 -2.627,1.129 -4.865,2.666 -6.713,4.612 -1.849,1.946 -3.26,4.193 -4.232,6.742 -0.973,2.549 -1.459,5.263 -1.459,8.143 0,3.152 0.505,6.061 1.517,8.727 1.011,2.665 2.461,4.98 4.349,6.946 1.887,1.965 4.105,3.493 6.654,4.583 2.549,1.088 5.342,1.634 8.377,1.634 2.529,0 4.825,-0.341 6.888,-1.022 2.062,-0.681 3.832,-1.47 5.311,-2.363 l -2.276,-5.371 c -1.167,0.817 -2.588,1.576 -4.261,2.276 -1.673,0.7 -3.502,1.052 -5.487,1.052 -2.063,0 -4.008,-0.41 -5.837,-1.227 -1.83,-0.816 -3.444,-1.966 -4.845,-3.443 -1.401,-1.48 -2.501,-3.193 -3.298,-5.138 -0.798,-1.946 -1.197,-4.066 -1.197,-6.362 0,-2.258 0.359,-4.369 1.08,-6.333 0.72,-1.966 1.751,-3.678 3.094,-5.137 1.342,-1.46 2.967,-2.598 4.874,-3.415 1.906,-0.817 4.047,-1.226 6.421,-1.226 2.14,0 4.047,0.331 5.72,0.992 1.673,0.662 3.055,1.401 4.145,2.219 z"
             style="fill:#808080;fill-opacity:1;fill-rule:nonzero;stroke:none"
             id="path26" />
        </g>
        <path
           d="m 772.842,674.779 h 5.662 v -42.204 h -5.662 z"
           style="fill:#808080;fill-opacity:1;fill-rule:nonzero;stroke:none"
           id="path28" />
        <g
           id="g30"
           transform="translate(790.6455,674.7788)">
          <path
             d="M 0,0 H 27.435 V -5.429 H 5.662 V -18.271 H 25.1 v -5.487 H 5.662 v -13.016 h 22.59 v -5.43 H 0 Z"
             style="fill:#808080;fill-opacity:1;fill-rule:nonzero;stroke:none"
             id="path32" />
        </g>
        <g
           id="g34"
           transform="translate(865.2444,631.2322)">
          <path
             d="m 0,0 -32.63,33.098 1.635,-0.409 0.116,-31.346 h -5.662 V 44.83 h 0.292 L -4.028,11.616 -5.312,11.908 -5.429,43.547 H 0.234 V 0 Z"
             style="fill:#808080;fill-opacity:1;fill-rule:nonzero;stroke:none"
             id="path36" />
        </g>
        <g
           id="g38"
           transform="translate(874.4078,674.7788)">
          <path
             d="M 0,0 H 28.077 V -5.429 H 16.753 V -42.204 H 11.091 V -5.429 H 0 Z"
             style="fill:#808080;fill-opacity:1;fill-rule:nonzero;stroke:none"
             id="path40" />
        </g>
        <path
           d="m 911.474,674.779 h 5.662 v -42.204 h -5.662 z"
           style="fill:#808080;fill-opacity:1;fill-rule:nonzero;stroke:none"
           id="path42" />
        <g
           id="g44"
           transform="translate(929.2776,674.7788)">
          <path
             d="M 0,0 H 25.041 V -5.429 H 5.662 v -13.426 h 16.986 v -5.429 H 5.662 v -17.92 H 0 Z"
             style="fill:#808080;fill-opacity:1;fill-rule:nonzero;stroke:none"
             id="path46" />
        </g>
        <path
           d="m 963.658,674.779 h 5.662 v -42.204 h -5.662 z"
           style="fill:#808080;fill-opacity:1;fill-rule:nonzero;stroke:none"
           id="path48" />
        <g
           id="g50"
           transform="translate(1012.456,635.7276)">
          <path
             d="m 0,0 c -0.701,-0.467 -1.654,-0.993 -2.86,-1.577 -1.206,-0.583 -2.618,-1.07 -4.232,-1.459 -1.615,-0.388 -3.395,-0.584 -5.341,-0.584 -3.231,0.04 -6.158,0.623 -8.785,1.751 -2.627,1.129 -4.865,2.666 -6.713,4.612 -1.849,1.946 -3.26,4.193 -4.232,6.742 -0.973,2.549 -1.459,5.263 -1.459,8.143 0,3.152 0.505,6.061 1.517,8.727 1.012,2.665 2.461,4.98 4.349,6.946 1.887,1.965 4.105,3.493 6.654,4.583 2.549,1.088 5.342,1.634 8.377,1.634 2.529,0 4.825,-0.341 6.888,-1.022 2.062,-0.681 3.832,-1.47 5.311,-2.363 l -2.276,-5.371 c -1.167,0.817 -2.588,1.576 -4.261,2.276 -1.673,0.7 -3.502,1.052 -5.487,1.052 -2.063,0 -4.008,-0.41 -5.837,-1.227 -1.83,-0.816 -3.444,-1.966 -4.845,-3.443 -1.401,-1.48 -2.501,-3.193 -3.298,-5.138 -0.798,-1.946 -1.197,-4.066 -1.197,-6.362 0,-2.258 0.36,-4.369 1.08,-6.333 0.72,-1.966 1.751,-3.678 3.094,-5.137 1.343,-1.46 2.967,-2.598 4.874,-3.415 1.906,-0.817 4.047,-1.226 6.421,-1.226 2.14,0 4.047,0.331 5.72,0.992 1.673,0.662 3.055,1.401 4.145,2.219 z"
             style="fill:#808080;fill-opacity:1;fill-rule:nonzero;stroke:none"
             id="path52" />
        </g>
        <path
           d="m 1040.416,674.779 h 5.662 v -42.204 h -5.662 z"
           style="fill:#808080;fill-opacity:1;fill-rule:nonzero;stroke:none"
           id="path54" />
        <g
           id="g56"
           transform="translate(1094.759,631.2322)">
          <path
             d="m 0,0 -32.63,33.098 1.635,-0.409 0.116,-31.346 h -5.662 V 44.83 h 0.292 L -4.028,11.616 -5.312,11.908 -5.429,43.547 H 0.234 V 0 Z"
             style="fill:#808080;fill-opacity:1;fill-rule:nonzero;stroke:none"
             id="path58" />
        </g>
        <g
           id="g60"
           transform="translate(1128.9063,667.2485)">
          <path
             d="m 0,0 c -1.44,0.739 -3.016,1.381 -4.728,1.926 -1.713,0.545 -3.386,0.817 -5.02,0.817 -2.258,0 -4.057,-0.525 -5.4,-1.575 -1.342,-1.052 -2.013,-2.453 -2.013,-4.204 0,-1.322 0.438,-2.442 1.313,-3.356 0.876,-0.915 2.004,-1.703 3.386,-2.364 1.38,-0.662 2.85,-1.285 4.407,-1.868 1.284,-0.467 2.568,-1.022 3.852,-1.664 1.284,-0.642 2.442,-1.429 3.473,-2.363 1.031,-0.935 1.848,-2.083 2.452,-3.444 0.603,-1.363 0.905,-3.036 0.905,-5.02 0,-2.257 -0.555,-4.3 -1.664,-6.129 -1.109,-1.83 -2.695,-3.27 -4.757,-4.32 -2.063,-1.051 -4.534,-1.577 -7.414,-1.577 -1.829,0 -3.589,0.206 -5.282,0.614 -1.693,0.408 -3.26,0.963 -4.699,1.663 -1.44,0.701 -2.724,1.421 -3.853,2.161 l 2.511,4.436 c 0.933,-0.663 2.003,-1.294 3.21,-1.897 1.206,-0.605 2.47,-1.08 3.794,-1.431 1.323,-0.35 2.607,-0.525 3.852,-0.525 1.362,0 2.686,0.233 3.97,0.7 1.284,0.468 2.354,1.206 3.21,2.219 0.856,1.011 1.284,2.353 1.284,4.027 0,1.401 -0.379,2.588 -1.138,3.561 -0.759,0.972 -1.751,1.799 -2.977,2.481 -1.225,0.68 -2.559,1.293 -3.998,1.838 -1.363,0.467 -2.714,1.012 -4.057,1.635 -1.342,0.622 -2.588,1.371 -3.736,2.247 -1.148,0.875 -2.082,1.955 -2.802,3.24 -0.72,1.284 -1.079,2.84 -1.079,4.67 0,2.217 0.534,4.153 1.605,5.807 1.069,1.655 2.539,2.958 4.407,3.912 1.868,0.953 4.007,1.468 6.421,1.546 2.723,0 5.126,-0.331 7.209,-0.992 2.081,-0.662 3.92,-1.459 5.516,-2.393 z"
             style="fill:#808080;fill-opacity:1;fill-rule:nonzero;stroke:none"
             id="path62" />
        </g>
        <path
           d="m 1141.047,674.779 h 5.662 v -42.204 h -5.662 z"
           style="fill:#808080;fill-opacity:1;fill-rule:nonzero;stroke:none"
           id="path64" />
        <g
           id="g66"
           transform="translate(1191.8887,636.1939)">
          <path
             d="m 0,0 c -0.584,-0.506 -1.401,-1.002 -2.452,-1.488 -1.05,-0.487 -2.209,-0.924 -3.473,-1.313 -1.265,-0.39 -2.559,-0.701 -3.881,-0.934 -1.324,-0.234 -2.589,-0.351 -3.794,-0.351 -3.386,0 -6.441,0.526 -9.165,1.577 -2.724,1.05 -5.049,2.509 -6.976,4.378 -1.926,1.867 -3.395,4.065 -4.407,6.595 -1.012,2.53 -1.517,5.253 -1.517,8.172 0,3.58 0.573,6.752 1.722,9.515 1.147,2.763 2.714,5.108 4.699,7.034 1.984,1.926 4.29,3.385 6.917,4.378 2.626,0.992 5.379,1.488 8.26,1.488 2.489,0 4.786,-0.283 6.888,-0.846 2.101,-0.564 3.949,-1.313 5.545,-2.247 l -1.868,-5.195 c -0.818,0.427 -1.8,0.846 -2.948,1.255 -1.149,0.408 -2.326,0.739 -3.531,0.992 -1.207,0.253 -2.316,0.379 -3.328,0.379 -2.53,0 -4.796,-0.379 -6.8,-1.139 -2.005,-0.758 -3.736,-1.848 -5.195,-3.268 -1.459,-1.421 -2.579,-3.133 -3.356,-5.136 -0.78,-2.006 -1.168,-4.253 -1.168,-6.742 0,-2.258 0.388,-4.349 1.168,-6.276 0.777,-1.926 1.897,-3.581 3.356,-4.961 1.459,-1.382 3.181,-2.442 5.166,-3.181 1.985,-0.74 4.203,-1.109 6.654,-1.109 1.401,0 2.802,0.135 4.203,0.408 1.401,0.272 2.588,0.701 3.561,1.285 v 8.288 h -8.347 v 5.487 H 0 Z"
             style="fill:#808080;fill-opacity:1;fill-rule:nonzero;stroke:none"
             id="path68" />
        </g>
        <g
           id="g70"
           transform="translate(1236.0754,674.7788)">
          <path
             d="M 0,0 V -42.204 H -5.662 V -23.7 h -22.065 v -18.504 h -5.661 V 0 h 5.661 V -18.271 H -5.662 V 0 Z"
             style="fill:#808080;fill-opacity:1;fill-rule:nonzero;stroke:none"
             id="path72" />
        </g>
        <g
           id="g74"
           transform="translate(1245.0649,674.7788)">
          <path
             d="M 0,0 H 28.077 V -5.429 H 16.753 V -42.204 H 11.091 V -5.429 H 0 Z"
             style="fill:#808080;fill-opacity:1;fill-rule:nonzero;stroke:none"
             id="path76" />
        </g>
        <g
           id="g78"
           transform="translate(1303.962,667.2485)">
          <path
             d="m 0,0 c -1.44,0.739 -3.016,1.381 -4.728,1.926 -1.713,0.545 -3.385,0.817 -5.02,0.817 -2.257,0 -4.057,-0.525 -5.4,-1.575 -1.342,-1.052 -2.013,-2.453 -2.013,-4.204 0,-1.322 0.438,-2.442 1.313,-3.356 0.876,-0.915 2.004,-1.703 3.386,-2.364 1.38,-0.662 2.85,-1.285 4.407,-1.868 1.284,-0.467 2.568,-1.022 3.852,-1.664 1.284,-0.642 2.442,-1.429 3.473,-2.363 1.031,-0.935 1.848,-2.083 2.452,-3.444 0.603,-1.363 0.905,-3.036 0.905,-5.02 0,-2.257 -0.555,-4.3 -1.664,-6.129 -1.109,-1.83 -2.695,-3.27 -4.757,-4.32 -2.063,-1.051 -4.534,-1.577 -7.414,-1.577 -1.829,0 -3.589,0.206 -5.282,0.614 -1.692,0.408 -3.26,0.963 -4.699,1.663 -1.44,0.701 -2.724,1.421 -3.852,2.161 l 2.51,4.436 c 0.933,-0.663 2.003,-1.294 3.21,-1.897 1.206,-0.605 2.471,-1.08 3.794,-1.431 1.323,-0.35 2.607,-0.525 3.853,-0.525 1.361,0 2.685,0.233 3.969,0.7 1.284,0.468 2.354,1.206 3.21,2.219 0.856,1.011 1.285,2.353 1.285,4.027 0,1.401 -0.379,2.588 -1.139,3.561 -0.759,0.972 -1.751,1.799 -2.977,2.481 -1.225,0.68 -2.559,1.293 -3.998,1.838 -1.363,0.467 -2.714,1.012 -4.057,1.635 -1.342,0.622 -2.588,1.371 -3.736,2.247 -1.148,0.875 -2.082,1.955 -2.802,3.24 -0.72,1.284 -1.079,2.84 -1.079,4.67 0,2.217 0.534,4.153 1.605,5.807 1.07,1.655 2.539,2.958 4.407,3.912 1.868,0.953 4.007,1.468 6.421,1.546 2.723,0 5.126,-0.331 7.209,-0.992 2.081,-0.662 3.92,-1.459 5.516,-2.393 z"
             style="fill:#808080;fill-opacity:1;fill-rule:nonzero;stroke:none"
             id="path80" />
        </g>
        <g
           id="g82"
           transform="translate(952.1521,749.3722)">
          <path
             d="M 0,0 C 9.748,14.909 15.021,38.504 15.651,70.908 H 15.25 v 210.07 h -36.484 v 12.451 H 15.25 v 98.391 c 0,38.057 8.199,65.21 24.619,81.446 13.03,12.894 32.477,20.757 58.28,23.634 -21.767,5.836 -44.946,8.221 -68.922,6.495 -103.36,-7.442 -184.605,-89.683 -190.902,-193.119 -3.77,-61.93 19.769,-118.402 59.711,-158.552 38.801,-39.002 59.85,-89.241 65.538,-143.146 1.937,-18.356 25.713,-24.468 36.035,-9.167 C -0.26,-0.394 -0.13,-0.198 0,0"
             style="fill:#0047ab;fill-opacity:1;fill-rule:nonzero;stroke:none"
             id="path84" />
        </g>
        <g
           id="g86"
           transform="translate(1083.9833,1235.9124)">
          <path
             d="m 0,0 c -20.847,9.172 -45.601,3.264 -58.852,-15.26 -0.394,-0.551 -0.78,-1.112 -1.156,-1.683 -10.48,-15.893 -15.72,-41.818 -15.72,-77.777 l 0.149,-98.391 h 36.806 v -12.451 h -36.795 l 0.069,-39.839 0.011,-12.67 0.23,-150.681 c 0,-38.057 -8.198,-65.209 -24.619,-81.446 -9.394,-9.295 -22.127,-15.974 -38.161,-20.063 H -3.76 v 0.706 c 0,66.038 24.589,130.077 70.173,177.86 35.355,37.059 57.066,87.241 57.066,142.508 C 123.479,-104.657 72.709,-31.988 0,0"
             style="fill:#808080;fill-opacity:1;fill-rule:nonzero;stroke:none"
             id="path88" />
        </g>
        <g
           id="g90"
           transform="translate(679.4813,1130.7698)">
          <path
             d="m 0,0 10.466,30.348 6.578,-2.269 -8.099,-23.486 16.271,-5.612 7.099,20.587 6.579,-2.27 -7.099,-20.586 21.717,-7.49 -2.366,-6.86 z"
             style="fill:#0047ab;fill-opacity:1;fill-rule:nonzero;stroke:none"
             id="path92" />
        </g>
        <g
           id="g94"
           transform="translate(712.1899,1204.9634)">
          <path
             d="M 0,0 3.763,6.207 50.026,-21.844 46.263,-28.05 Z"
             style="fill:#0047ab;fill-opacity:1;fill-rule:nonzero;stroke:none"
             id="path96" />
        </g>
        <g
           id="g98"
           transform="translate(786.0143,1226.7415)">
          <path
             d="m 0,0 6.141,6.241 c 2.065,2.097 3.66,4.359 4.788,6.784 1.126,2.425 1.742,4.9 1.845,7.423 0.104,2.523 -0.358,5.025 -1.383,7.503 -1.026,2.479 -2.676,4.837 -4.951,7.077 -2.347,2.309 -4.804,3.956 -7.369,4.941 -2.565,0.985 -5.117,1.396 -7.656,1.236 -2.538,-0.162 -4.958,-0.79 -7.261,-1.884 -2.301,-1.095 -4.362,-2.567 -6.181,-4.415 l -6.614,-6.721 z m -0.131,-10.054 -38.561,37.947 10.34,10.508 c 3.779,3.839 7.559,6.523 11.338,8.054 3.78,1.529 7.453,2.166 11.018,1.914 3.565,-0.254 6.87,-1.144 9.916,-2.672 3.047,-1.529 5.742,-3.446 8.089,-5.756 2.916,-2.87 5.031,-5.948 6.344,-9.235 1.315,-3.289 1.923,-6.618 1.826,-9.987 -0.095,-3.37 -0.837,-6.63 -2.223,-9.78 C 16.571,7.788 14.618,4.933 12.099,2.373 Z"
             style="fill:#0047ab;fill-opacity:1;fill-rule:nonzero;stroke:none"
             id="path100" />
        </g>
        <g
           id="g102"
           transform="translate(820.2522,1317.1086)">
          <path
             d="m 0,0 30.581,17.369 3.437,-6.051 -24.27,-13.784 8.131,-14.315 21.667,12.307 3.473,-6.117 -21.666,-12.307 8.241,-14.509 25.181,14.302 3.437,-6.051 -31.492,-17.887 z"
             style="fill:#0047ab;fill-opacity:1;fill-rule:nonzero;stroke:none"
             id="path104" />
        </g>
        <g
           id="g106"
           transform="translate(915.1398,1321.9895)">
          <path
             d="m 0,0 c 0.582,-2.374 1.67,-4.355 3.265,-5.942 1.595,-1.586 3.48,-2.68 5.656,-3.275 2.175,-0.598 4.426,-0.612 6.751,-0.043 2.472,0.605 4.546,1.678 6.223,3.218 1.677,1.541 2.832,3.378 3.466,5.511 0.633,2.131 0.659,4.385 0.078,6.76 L 17.128,40.172 24.105,41.88 32.47,7.719 c 0.937,-3.828 0.884,-7.385 -0.161,-10.671 -1.044,-3.286 -2.879,-6.073 -5.503,-8.358 -2.626,-2.287 -5.779,-3.88 -9.461,-4.782 -3.634,-0.89 -7.143,-0.928 -10.527,-0.111 -3.384,0.813 -6.298,2.437 -8.742,4.87 -2.445,2.43 -4.135,5.561 -5.073,9.389 l -8.365,34.16 7.051,1.727 z"
             style="fill:#0047ab;fill-opacity:1;fill-rule:nonzero;stroke:none"
             id="path108" />
        </g>
        <g
           id="g110"
           transform="translate(1020.9705,1358.4856)">
          <path
             d="m 0,0 c -1.822,0.993 -3.822,1.865 -5.999,2.617 -2.178,0.753 -4.313,1.154 -6.408,1.206 -2.892,0.071 -5.215,-0.546 -6.969,-1.85 -1.754,-1.304 -2.658,-3.079 -2.713,-5.323 -0.041,-1.696 0.484,-3.143 1.578,-4.342 1.093,-1.2 2.514,-2.246 4.264,-3.136 1.75,-0.893 3.612,-1.735 5.589,-2.533 1.632,-0.639 3.26,-1.39 4.885,-2.254 1.626,-0.863 3.085,-1.909 4.377,-3.139 1.292,-1.229 2.302,-2.726 3.034,-4.49 0.729,-1.766 1.064,-3.919 1.001,-6.463 -0.071,-2.892 -0.846,-5.492 -2.324,-7.801 -1.48,-2.31 -3.557,-4.105 -6.233,-5.386 -2.677,-1.282 -5.86,-1.877 -9.55,-1.787 -2.345,0.057 -4.595,0.375 -6.751,0.952 -2.157,0.577 -4.147,1.336 -5.97,2.28 -1.823,0.943 -3.447,1.906 -4.869,2.888 l 3.356,5.607 c 1.177,-0.878 2.528,-1.722 4.055,-2.532 1.526,-0.812 3.132,-1.462 4.818,-1.952 1.683,-0.49 3.324,-0.755 4.92,-0.795 1.745,-0.043 3.448,0.215 5.109,0.773 1.661,0.559 3.055,1.47 4.184,2.742 1.129,1.269 1.72,2.976 1.772,5.121 0.045,1.795 -0.404,3.328 -1.346,4.6 -0.942,1.269 -2.188,2.36 -3.737,3.272 -1.55,0.911 -3.239,1.738 -5.067,2.482 -1.731,0.642 -3.447,1.382 -5.147,2.222 -1.701,0.839 -3.274,1.84 -4.717,2.998 -1.444,1.158 -2.607,2.571 -3.489,4.239 -0.883,1.669 -1.295,3.674 -1.237,6.02 0.069,2.842 0.815,5.305 2.239,7.392 1.424,2.086 3.348,3.709 5.772,4.874 2.424,1.162 5.182,1.756 8.277,1.78 3.49,-0.086 6.56,-0.586 9.208,-1.499 C -1.442,7.87 0.889,6.79 2.906,5.543 Z"
             style="fill:#0047ab;fill-opacity:1;fill-rule:nonzero;stroke:none"
             id="path112" />
        </g>
        <g
           id="g114"
           transform="translate(1131.4738,1341.5258)">
          <path
             d="M 0,0 6.517,-3.198 -14.246,-45.522 10.41,-57.616 7.345,-63.865 -23.827,-48.572 Z"
             style="fill:#0047ab;fill-opacity:1;fill-rule:nonzero;stroke:none"
             id="path116" />
        </g>
        <g
           id="g118"
           transform="translate(1189.3842,1266.7874)">
          <path
             d="M 0,0 15.093,-13.319 12.73,-19.615 -5.73,-3.327 Z m -23.946,-6.215 54.955,26.655 0.336,-0.296 -19.549,-57.896 -6.228,5.495 16.512,45.406 6.1,-0.891 -46.739,-23.227 z"
             style="fill:#0047ab;fill-opacity:1;fill-rule:nonzero;stroke:none"
             id="path120" />
        </g>
        <g
           id="g122"
           transform="translate(1257.4086,1205.5149)">
          <path
             d="m 0,0 c 1.646,-2.5 3.528,-3.858 5.644,-4.078 2.115,-0.22 4.151,0.315 6.11,1.605 2.416,1.591 3.686,3.474 3.809,5.645 0.122,2.172 -0.625,4.486 -2.244,6.945 L 9.45,15.99 -4.486,6.812 Z m -19.646,-13.297 c 1.125,-1.708 2.391,-3.085 3.796,-4.131 1.406,-1.045 2.907,-1.625 4.505,-1.737 1.597,-0.113 3.166,0.339 4.708,1.353 1.75,1.154 2.816,2.527 3.198,4.123 0.383,1.596 0.313,3.268 -0.21,5.014 -0.523,1.746 -1.293,3.39 -2.307,4.931 l -4.405,6.688 -13.935,-9.179 z m 38.571,27.554 c 2.99,-4.541 4.416,-8.725 4.278,-12.549 -0.14,-3.825 -2.146,-7.014 -6.021,-9.565 -2.416,-1.592 -4.856,-2.422 -7.319,-2.492 -2.464,-0.068 -4.833,0.535 -7.108,1.815 -2.276,1.279 -4.363,3.175 -6.258,5.69 l 2.611,2.974 c 1.919,-3.095 3.176,-6.181 3.767,-9.257 0.592,-3.075 0.458,-5.91 -0.4,-8.507 -0.859,-2.596 -2.517,-4.704 -4.975,-6.323 -2.249,-1.481 -4.445,-2.344 -6.583,-2.589 -2.139,-0.244 -4.193,0.017 -6.159,0.783 -1.968,0.764 -3.775,1.874 -5.42,3.33 -1.646,1.455 -3.113,3.162 -4.402,5.12 l -8.85,13.436 45.183,29.758 z"
             style="fill:#0047ab;fill-opacity:1;fill-rule:nonzero;stroke:none"
             id="path124" />
        </g>
        <g
           id="g126"
           transform="translate(1309.3217,1127.2732)">
          <path
             d="m 0,0 c 0.297,2.053 0.421,4.232 0.371,6.534 -0.051,2.304 -0.416,4.446 -1.095,6.428 -0.939,2.738 -2.323,4.701 -4.156,5.893 -1.832,1.192 -3.809,1.424 -5.933,0.696 -1.605,-0.55 -2.781,-1.547 -3.525,-2.988 -0.745,-1.442 -1.232,-3.138 -1.46,-5.089 -0.229,-1.95 -0.373,-3.989 -0.433,-6.121 -0.033,-1.75 -0.172,-3.539 -0.417,-5.363 -0.245,-1.824 -0.719,-3.555 -1.423,-5.195 -0.705,-1.637 -1.757,-3.106 -3.158,-4.403 -1.402,-1.298 -3.305,-2.359 -5.711,-3.184 -2.738,-0.937 -5.446,-1.115 -8.124,-0.529 -2.681,0.584 -5.085,1.91 -7.216,3.974 -2.132,2.064 -3.796,4.843 -4.992,8.334 -0.761,2.22 -1.245,4.439 -1.452,6.661 -0.209,2.223 -0.187,4.354 0.064,6.39 0.251,2.038 0.59,3.894 1.018,5.57 l 6.423,-1.2 c -0.415,-1.407 -0.737,-2.968 -0.966,-4.681 -0.232,-1.714 -0.283,-3.446 -0.158,-5.197 0.125,-1.749 0.446,-3.379 0.965,-4.89 0.565,-1.651 1.398,-3.16 2.498,-4.522 1.101,-1.364 2.441,-2.354 4.024,-2.972 1.583,-0.617 3.389,-0.579 5.419,0.117 1.699,0.582 2.98,1.534 3.845,2.86 0.863,1.325 1.454,2.872 1.771,4.641 0.316,1.769 0.505,3.641 0.568,5.613 0,1.847 0.099,3.712 0.296,5.599 0.197,1.887 0.588,3.709 1.173,5.465 0.584,1.756 1.506,3.337 2.764,4.745 1.258,1.406 2.995,2.489 5.214,3.249 2.69,0.922 5.259,1.079 7.711,0.467 2.45,-0.61 4.641,-1.85 6.574,-3.719 C 2.411,21.314 3.925,18.934 5.024,16.04 6.156,12.737 6.753,9.684 6.816,6.885 6.878,4.085 6.676,1.525 6.207,-0.799 Z"
             style="fill:#0047ab;fill-opacity:1;fill-rule:nonzero;stroke:none"
             id="path128" />
        </g>
      </g>
    </g>
  </g>
  <g
     id="g132"
     inkscape:groupmode="layer"
     inkscape:label="Page 2"
     transform="matrix(1.3333333,0,0,-1.3333333,2686.6667,2666.6667)">
    <g
       id="g134"
       transform="matrix(2.6541397,0,0,2.6541397,-1655.2728,-1641.6978)">
      <g
         id="g136"
         clip-path="url(#clipPath140)">
        <g
           id="g142"
           transform="translate(943.9064,700.0499)">
          <path
             d="M 0,0 C 11.872,18.157 18.294,46.894 19.062,86.358 H 18.573 V 342.199 H -25.86 v 15.163 h 44.433 v 119.829 c 0,46.349 9.985,79.418 29.983,99.192 15.869,15.703 39.553,25.279 70.978,28.784 -26.51,7.107 -54.739,10.011 -83.939,7.909 -125.881,-9.062 -224.827,-109.222 -232.496,-235.196 -4.592,-75.424 24.077,-144.2 72.721,-193.097 47.255,-47.501 72.89,-108.686 79.818,-174.336 2.359,-22.356 31.315,-29.8 43.886,-11.164 C -0.316,-0.48 -0.158,-0.241 0,0"
             style="fill:#0047ab;fill-opacity:1;fill-rule:nonzero;stroke:none"
             id="path144" />
        </g>
        <g
           id="g146"
           transform="translate(1104.4615,1292.5992)">
          <path
             d="m 0,0 c -25.39,11.17 -55.537,3.975 -71.675,-18.585 -0.48,-0.671 -0.949,-1.354 -1.408,-2.05 -12.764,-19.355 -19.145,-50.929 -19.145,-94.723 l 0.182,-119.829 h 44.824 v -15.163 h -44.812 l 0.084,-48.52 0.015,-15.431 0.279,-183.511 c 0,-46.349 -9.984,-79.418 -29.982,-99.192 -11.441,-11.321 -26.948,-19.455 -46.476,-24.434 H -4.579 v 0.859 c 0,80.427 29.947,158.419 85.463,216.613 43.057,45.134 69.499,106.249 69.499,173.559 C 150.383,-127.46 88.551,-38.958 0,0"
             style="fill:#808080;fill-opacity:1;fill-rule:nonzero;stroke:none"
             id="path148" />
        </g>
      </g>
    </g>
  </g>
  <g
     id="g152"
     inkscape:groupmode="layer"
     inkscape:label="Page 3"
     transform="matrix(1.3333333,0,0,-1.3333333,5373.3333,2666.6667)">
    <g
       id="g154">
      <g
         id="g156"
         clip-path="url(#clipPath160)">
        <g
           id="g162"
           transform="translate(720.192,667.2485)">
          <path
             d="m 0,0 c -1.44,0.739 -3.016,1.381 -4.728,1.926 -1.713,0.545 -3.385,0.817 -5.02,0.817 -2.258,0 -4.057,-0.525 -5.4,-1.575 -1.342,-1.052 -2.013,-2.453 -2.013,-4.204 0,-1.322 0.438,-2.442 1.313,-3.356 0.876,-0.915 2.004,-1.703 3.386,-2.364 1.38,-0.662 2.85,-1.285 4.407,-1.868 1.284,-0.467 2.568,-1.022 3.852,-1.664 1.284,-0.642 2.442,-1.429 3.473,-2.363 1.031,-0.935 1.848,-2.083 2.452,-3.444 0.603,-1.363 0.905,-3.036 0.905,-5.02 0,-2.257 -0.555,-4.3 -1.664,-6.129 -1.109,-1.83 -2.695,-3.27 -4.757,-4.32 -2.063,-1.051 -4.534,-1.577 -7.414,-1.577 -1.829,0 -3.589,0.206 -5.282,0.614 -1.693,0.408 -3.26,0.963 -4.699,1.663 -1.44,0.701 -2.724,1.421 -3.852,2.161 l 2.51,4.436 c 0.933,-0.663 2.003,-1.294 3.21,-1.897 1.206,-0.605 2.471,-1.08 3.794,-1.431 1.323,-0.35 2.607,-0.525 3.853,-0.525 1.361,0 2.685,0.233 3.969,0.7 1.284,0.468 2.354,1.206 3.21,2.219 0.856,1.011 1.285,2.353 1.285,4.027 0,1.401 -0.38,2.588 -1.139,3.561 -0.759,0.972 -1.751,1.799 -2.977,2.481 -1.225,0.68 -2.559,1.293 -3.998,1.838 -1.363,0.467 -2.714,1.012 -4.057,1.635 -1.342,0.622 -2.588,1.371 -3.736,2.247 -1.148,0.875 -2.082,1.955 -2.802,3.24 -0.72,1.284 -1.079,2.84 -1.079,4.67 0,2.217 0.534,4.153 1.605,5.807 1.069,1.655 2.539,2.958 4.407,3.912 1.868,0.953 4.007,1.468 6.421,1.546 2.723,0 5.126,-0.331 7.209,-0.992 2.081,-0.662 3.92,-1.459 5.516,-2.393 z"
             style="fill:#808080;fill-opacity:1;fill-rule:nonzero;stroke:none"
             id="path164" />
        </g>
        <g
           id="g166"
           transform="translate(763.3281,635.7276)">
          <path
             d="m 0,0 c -0.701,-0.467 -1.654,-0.993 -2.86,-1.577 -1.207,-0.583 -2.618,-1.07 -4.232,-1.459 -1.615,-0.388 -3.396,-0.584 -5.341,-0.584 -3.231,0.04 -6.158,0.623 -8.785,1.751 -2.627,1.129 -4.865,2.666 -6.713,4.612 -1.849,1.946 -3.26,4.193 -4.232,6.742 -0.973,2.549 -1.459,5.263 -1.459,8.143 0,3.152 0.505,6.061 1.517,8.727 1.011,2.665 2.461,4.98 4.349,6.946 1.887,1.965 4.105,3.493 6.654,4.583 2.549,1.088 5.342,1.634 8.377,1.634 2.529,0 4.825,-0.341 6.888,-1.022 2.062,-0.681 3.832,-1.47 5.311,-2.363 l -2.276,-5.371 c -1.167,0.817 -2.588,1.576 -4.261,2.276 -1.673,0.7 -3.502,1.052 -5.487,1.052 -2.063,0 -4.008,-0.41 -5.837,-1.227 -1.83,-0.816 -3.444,-1.966 -4.845,-3.443 -1.401,-1.48 -2.501,-3.193 -3.298,-5.138 -0.798,-1.946 -1.197,-4.066 -1.197,-6.362 0,-2.258 0.359,-4.369 1.08,-6.333 0.72,-1.966 1.751,-3.678 3.094,-5.137 1.342,-1.46 2.967,-2.598 4.874,-3.415 1.906,-0.817 4.047,-1.226 6.421,-1.226 2.14,0 4.047,0.331 5.72,0.992 1.673,0.662 3.055,1.401 4.145,2.219 z"
             style="fill:#808080;fill-opacity:1;fill-rule:nonzero;stroke:none"
             id="path168" />
        </g>
        <path
           d="m 772.842,674.779 h 5.662 v -42.204 h -5.662 z"
           style="fill:#808080;fill-opacity:1;fill-rule:nonzero;stroke:none"
           id="path170" />
        <g
           id="g172"
           transform="translate(790.6455,674.7788)">
          <path
             d="M 0,0 H 27.435 V -5.429 H 5.662 V -18.271 H 25.1 v -5.487 H 5.662 v -13.016 h 22.59 v -5.43 H 0 Z"
             style="fill:#808080;fill-opacity:1;fill-rule:nonzero;stroke:none"
             id="path174" />
        </g>
        <g
           id="g176"
           transform="translate(865.2444,631.2322)">
          <path
             d="m 0,0 -32.63,33.098 1.635,-0.409 0.116,-31.346 h -5.662 V 44.83 h 0.292 L -4.028,11.616 -5.312,11.908 -5.429,43.547 H 0.234 L 0.234,0 Z"
             style="fill:#808080;fill-opacity:1;fill-rule:nonzero;stroke:none"
             id="path178" />
        </g>
        <g
           id="g180"
           transform="translate(874.4078,674.7788)">
          <path
             d="M 0,0 H 28.077 V -5.429 H 16.753 V -42.204 H 11.091 V -5.429 L 0,-5.429 Z"
             style="fill:#808080;fill-opacity:1;fill-rule:nonzero;stroke:none"
             id="path182" />
        </g>
        <path
           d="m 911.474,674.779 h 5.662 v -42.204 h -5.662 z"
           style="fill:#808080;fill-opacity:1;fill-rule:nonzero;stroke:none"
           id="path184" />
        <g
           id="g186"
           transform="translate(929.2776,674.7788)">
          <path
             d="M 0,0 H 25.041 V -5.429 H 5.662 v -13.426 h 16.986 v -5.429 H 5.662 v -17.92 H 0 Z"
             style="fill:#808080;fill-opacity:1;fill-rule:nonzero;stroke:none"
             id="path188" />
        </g>
        <path
           d="m 963.658,674.779 h 5.662 v -42.204 h -5.662 z"
           style="fill:#808080;fill-opacity:1;fill-rule:nonzero;stroke:none"
           id="path190" />
        <g
           id="g192"
           transform="translate(1012.456,635.7276)">
          <path
             d="m 0,0 c -0.701,-0.467 -1.654,-0.993 -2.86,-1.577 -1.206,-0.583 -2.618,-1.07 -4.232,-1.459 -1.615,-0.388 -3.395,-0.584 -5.341,-0.584 -3.231,0.04 -6.158,0.623 -8.785,1.751 -2.627,1.129 -4.865,2.666 -6.713,4.612 -1.849,1.946 -3.26,4.193 -4.232,6.742 -0.973,2.549 -1.459,5.263 -1.459,8.143 0,3.152 0.505,6.061 1.517,8.727 1.012,2.665 2.461,4.98 4.349,6.946 1.887,1.965 4.105,3.493 6.654,4.583 2.549,1.088 5.342,1.634 8.377,1.634 2.529,0 4.825,-0.341 6.888,-1.022 2.062,-0.681 3.832,-1.47 5.311,-2.363 l -2.276,-5.371 c -1.167,0.817 -2.588,1.576 -4.261,2.276 -1.673,0.7 -3.502,1.052 -5.487,1.052 -2.063,0 -4.008,-0.41 -5.837,-1.227 -1.83,-0.816 -3.444,-1.966 -4.845,-3.443 -1.401,-1.48 -2.501,-3.193 -3.298,-5.138 -0.798,-1.946 -1.197,-4.066 -1.197,-6.362 0,-2.258 0.36,-4.369 1.08,-6.333 0.72,-1.966 1.751,-3.678 3.094,-5.137 1.343,-1.46 2.967,-2.598 4.874,-3.415 1.906,-0.817 4.047,-1.226 6.421,-1.226 2.14,0 4.047,0.331 5.72,0.992 1.673,0.662 3.055,1.401 4.145,2.219 z"
             style="fill:#808080;fill-opacity:1;fill-rule:nonzero;stroke:none"
             id="path194" />
        </g>
        <path
           d="m 1040.416,674.779 h 5.662 v -42.204 h -5.662 z"
           style="fill:#808080;fill-opacity:1;fill-rule:nonzero;stroke:none"
           id="path196" />
        <g
           id="g198"
           transform="translate(1094.759,631.2322)">
          <path
             d="m 0,0 -32.63,33.098 1.635,-0.409 0.116,-31.346 h -5.662 V 44.83 h 0.292 L -4.028,11.616 -5.312,11.908 -5.429,43.547 H 0.234 L 0.234,0 Z"
             style="fill:#808080;fill-opacity:1;fill-rule:nonzero;stroke:none"
             id="path200" />
        </g>
        <g
           id="g202"
           transform="translate(1128.9063,667.2485)">
          <path
             d="m 0,0 c -1.44,0.739 -3.016,1.381 -4.728,1.926 -1.713,0.545 -3.386,0.817 -5.02,0.817 -2.258,0 -4.057,-0.525 -5.4,-1.575 -1.342,-1.052 -2.013,-2.453 -2.013,-4.204 0,-1.322 0.438,-2.442 1.313,-3.356 0.876,-0.915 2.004,-1.703 3.386,-2.364 1.38,-0.662 2.85,-1.285 4.407,-1.868 1.284,-0.467 2.568,-1.022 3.852,-1.664 1.284,-0.642 2.442,-1.429 3.473,-2.363 1.031,-0.935 1.848,-2.083 2.452,-3.444 0.603,-1.363 0.905,-3.036 0.905,-5.02 0,-2.257 -0.555,-4.3 -1.664,-6.129 -1.109,-1.83 -2.695,-3.27 -4.757,-4.32 -2.063,-1.051 -4.534,-1.577 -7.414,-1.577 -1.829,0 -3.589,0.206 -5.282,0.614 -1.693,0.408 -3.26,0.963 -4.699,1.663 -1.44,0.701 -2.724,1.421 -3.853,2.161 l 2.511,4.436 c 0.933,-0.663 2.003,-1.294 3.21,-1.897 1.206,-0.605 2.47,-1.08 3.794,-1.431 1.323,-0.35 2.607,-0.525 3.852,-0.525 1.362,0 2.686,0.233 3.97,0.7 1.284,0.468 2.354,1.206 3.21,2.219 0.856,1.011 1.284,2.353 1.284,4.027 0,1.401 -0.379,2.588 -1.138,3.561 -0.759,0.972 -1.751,1.799 -2.977,2.481 -1.225,0.68 -2.559,1.293 -3.998,1.838 -1.363,0.467 -2.714,1.012 -4.057,1.635 -1.342,0.622 -2.588,1.371 -3.736,2.247 -1.148,0.875 -2.082,1.955 -2.802,3.24 -0.72,1.284 -1.079,2.84 -1.079,4.67 0,2.217 0.534,4.153 1.605,5.807 1.069,1.655 2.539,2.958 4.407,3.912 1.868,0.953 4.007,1.468 6.421,1.546 2.723,0 5.126,-0.331 7.209,-0.992 2.081,-0.662 3.92,-1.459 5.516,-2.393 z"
             style="fill:#808080;fill-opacity:1;fill-rule:nonzero;stroke:none"
             id="path204" />
        </g>
        <path
           d="m 1141.047,674.779 h 5.662 v -42.204 h -5.662 z"
           style="fill:#808080;fill-opacity:1;fill-rule:nonzero;stroke:none"
           id="path206" />
        <g
           id="g208"
           transform="translate(1191.8887,636.1939)">
          <path
             d="m 0,0 c -0.584,-0.506 -1.401,-1.002 -2.452,-1.488 -1.05,-0.487 -2.209,-0.924 -3.473,-1.313 -1.265,-0.39 -2.559,-0.701 -3.881,-0.934 -1.324,-0.234 -2.589,-0.351 -3.794,-0.351 -3.386,0 -6.441,0.526 -9.165,1.577 -2.724,1.05 -5.049,2.509 -6.976,4.378 -1.926,1.867 -3.395,4.065 -4.407,6.595 -1.012,2.53 -1.517,5.253 -1.517,8.172 0,3.58 0.573,6.752 1.722,9.515 1.147,2.763 2.714,5.108 4.699,7.034 1.984,1.926 4.29,3.385 6.917,4.378 2.626,0.992 5.379,1.488 8.26,1.488 2.489,0 4.786,-0.283 6.888,-0.846 2.101,-0.564 3.949,-1.313 5.545,-2.247 l -1.868,-5.195 c -0.818,0.427 -1.8,0.846 -2.948,1.255 -1.149,0.408 -2.326,0.739 -3.531,0.992 -1.207,0.253 -2.316,0.379 -3.328,0.379 -2.53,0 -4.796,-0.379 -6.8,-1.139 -2.005,-0.758 -3.736,-1.848 -5.195,-3.268 -1.459,-1.421 -2.579,-3.133 -3.356,-5.136 -0.78,-2.006 -1.168,-4.253 -1.168,-6.742 0,-2.258 0.388,-4.349 1.168,-6.276 0.777,-1.926 1.897,-3.581 3.356,-4.961 1.459,-1.382 3.181,-2.442 5.166,-3.181 1.985,-0.74 4.203,-1.109 6.654,-1.109 1.401,0 2.802,0.135 4.203,0.408 1.401,0.272 2.588,0.701 3.561,1.285 v 8.288 h -8.347 v 5.487 H 0 Z"
             style="fill:#808080;fill-opacity:1;fill-rule:nonzero;stroke:none"
             id="path210" />
        </g>
        <g
           id="g212"
           transform="translate(1236.0754,674.7788)">
          <path
             d="M 0,0 V -42.204 H -5.662 V -23.7 h -22.065 v -18.504 h -5.661 V 0 h 5.661 v -18.271 h 22.065 l 0,18.271 z"
             style="fill:#808080;fill-opacity:1;fill-rule:nonzero;stroke:none"
             id="path214" />
        </g>
        <g
           id="g216"
           transform="translate(1245.0649,674.7788)">
          <path
             d="M 0,0 H 28.077 V -5.429 H 16.753 V -42.204 H 11.091 V -5.429 L 0,-5.429 Z"
             style="fill:#808080;fill-opacity:1;fill-rule:nonzero;stroke:none"
             id="path218" />
        </g>
        <g
           id="g220"
           transform="translate(1303.962,667.2485)">
          <path
             d="m 0,0 c -1.44,0.739 -3.016,1.381 -4.728,1.926 -1.713,0.545 -3.385,0.817 -5.02,0.817 -2.257,0 -4.057,-0.525 -5.4,-1.575 -1.342,-1.052 -2.013,-2.453 -2.013,-4.204 0,-1.322 0.438,-2.442 1.313,-3.356 0.876,-0.915 2.004,-1.703 3.386,-2.364 1.38,-0.662 2.85,-1.285 4.407,-1.868 1.284,-0.467 2.568,-1.022 3.852,-1.664 1.284,-0.642 2.442,-1.429 3.473,-2.363 1.031,-0.935 1.848,-2.083 2.452,-3.444 0.603,-1.363 0.905,-3.036 0.905,-5.02 0,-2.257 -0.555,-4.3 -1.664,-6.129 -1.109,-1.83 -2.695,-3.27 -4.757,-4.32 -2.063,-1.051 -4.534,-1.577 -7.414,-1.577 -1.829,0 -3.589,0.206 -5.282,0.614 -1.692,0.408 -3.26,0.963 -4.699,1.663 -1.44,0.701 -2.724,1.421 -3.852,2.161 l 2.51,4.436 c 0.933,-0.663 2.003,-1.294 3.21,-1.897 1.206,-0.605 2.471,-1.08 3.794,-1.431 1.323,-0.35 2.607,-0.525 3.853,-0.525 1.361,0 2.685,0.233 3.969,0.7 1.284,0.468 2.354,1.206 3.21,2.219 0.856,1.011 1.285,2.353 1.285,4.027 0,1.401 -0.379,2.588 -1.139,3.561 -0.759,0.972 -1.751,1.799 -2.977,2.481 -1.225,0.68 -2.559,1.293 -3.998,1.838 -1.363,0.467 -2.714,1.012 -4.057,1.635 -1.342,0.622 -2.588,1.371 -3.736,2.247 -1.148,0.875 -2.082,1.955 -2.802,3.24 -0.72,1.284 -1.079,2.84 -1.079,4.67 0,2.217 0.534,4.153 1.605,5.807 1.07,1.655 2.539,2.958 4.407,3.912 1.868,0.953 4.007,1.468 6.421,1.546 2.723,0 5.126,-0.331 7.209,-0.992 2.081,-0.662 3.92,-1.459 5.516,-2.393 z"
             style="fill:#808080;fill-opacity:1;fill-rule:nonzero;stroke:none"
             id="path222" />
        </g>
        <g
           id="g224"
           transform="translate(952.1521,749.3722)">
          <path
             d="M 0,0 C 9.748,14.909 15.021,38.504 15.651,70.908 H 15.25 v 210.07 h -36.484 v 12.451 H 15.25 v 98.391 c 0,38.057 8.199,65.21 24.619,81.446 13.03,12.894 32.477,20.757 58.28,23.634 -21.767,5.836 -44.946,8.221 -68.922,6.495 -103.36,-7.442 -184.605,-89.683 -190.902,-193.119 -3.77,-61.93 19.769,-118.402 59.711,-158.552 38.801,-39.002 59.85,-89.241 65.538,-143.146 1.937,-18.356 25.713,-24.468 36.035,-9.167 C -0.26,-0.394 -0.13,-0.198 0,0"
             style="fill:#0047ab;fill-opacity:1;fill-rule:nonzero;stroke:none"
             id="path226" />
        </g>
        <g
           id="g228"
           transform="translate(1083.9833,1235.9124)">
          <path
             d="m 0,0 c -20.847,9.172 -45.601,3.264 -58.852,-15.26 -0.394,-0.551 -0.78,-1.112 -1.156,-1.683 -10.48,-15.893 -15.72,-41.818 -15.72,-77.777 l 0.149,-98.391 h 36.806 v -12.451 h -36.795 l 0.069,-39.839 0.011,-12.67 0.23,-150.681 c 0,-38.057 -8.198,-65.209 -24.619,-81.446 -9.394,-9.295 -22.127,-15.974 -38.161,-20.063 H -3.76 v 0.706 c 0,66.038 24.589,130.077 70.173,177.86 35.355,37.059 57.066,87.241 57.066,142.508 C 123.479,-104.657 72.709,-31.988 0,0"
             style="fill:#808080;fill-opacity:1;fill-rule:nonzero;stroke:none"
             id="path230" />
        </g>
        <g
           id="g232"
           transform="translate(679.4813,1130.7698)">
          <path
             d="m 0,0 10.466,30.348 6.578,-2.269 -8.099,-23.486 16.271,-5.612 7.099,20.587 6.579,-2.27 -7.099,-20.586 21.717,-7.49 -2.366,-6.86 z"
             style="fill:#0047ab;fill-opacity:1;fill-rule:nonzero;stroke:none"
             id="path234" />
        </g>
        <g
           id="g236"
           transform="translate(712.1899,1204.9634)">
          <path
             d="M 0,0 3.763,6.207 50.026,-21.844 46.263,-28.05 Z"
             style="fill:#0047ab;fill-opacity:1;fill-rule:nonzero;stroke:none"
             id="path238" />
        </g>
        <g
           id="g240"
           transform="translate(786.0143,1226.7415)">
          <path
             d="m 0,0 6.141,6.241 c 2.065,2.097 3.66,4.359 4.788,6.784 1.126,2.425 1.742,4.9 1.845,7.423 0.104,2.523 -0.358,5.025 -1.383,7.503 -1.026,2.479 -2.676,4.837 -4.951,7.077 -2.347,2.309 -4.804,3.956 -7.369,4.941 -2.565,0.985 -5.117,1.396 -7.656,1.236 -2.538,-0.162 -4.958,-0.79 -7.261,-1.884 -2.301,-1.095 -4.362,-2.567 -6.181,-4.415 l -6.614,-6.721 z m -0.131,-10.054 -38.561,37.947 10.34,10.508 c 3.779,3.839 7.559,6.523 11.338,8.054 3.78,1.529 7.453,2.166 11.018,1.914 3.565,-0.254 6.87,-1.144 9.916,-2.672 3.047,-1.529 5.742,-3.446 8.089,-5.756 2.916,-2.87 5.031,-5.948 6.344,-9.235 1.315,-3.289 1.923,-6.618 1.826,-9.987 -0.095,-3.37 -0.837,-6.63 -2.223,-9.78 C 16.571,7.788 14.618,4.933 12.099,2.373 Z"
             style="fill:#0047ab;fill-opacity:1;fill-rule:nonzero;stroke:none"
             id="path242" />
        </g>
        <g
           id="g244"
           transform="translate(820.2522,1317.1086)">
          <path
             d="m 0,0 30.581,17.369 3.437,-6.051 -24.27,-13.784 8.131,-14.315 21.667,12.307 3.473,-6.117 -21.666,-12.307 8.241,-14.509 25.181,14.302 3.437,-6.051 -31.492,-17.887 z"
             style="fill:#0047ab;fill-opacity:1;fill-rule:nonzero;stroke:none"
             id="path246" />
        </g>
        <g
           id="g248"
           transform="translate(915.1398,1321.9895)">
          <path
             d="m 0,0 c 0.582,-2.374 1.67,-4.355 3.265,-5.942 1.595,-1.586 3.48,-2.68 5.656,-3.275 2.175,-0.598 4.426,-0.612 6.751,-0.043 2.472,0.605 4.546,1.678 6.223,3.218 1.677,1.541 2.832,3.378 3.466,5.511 0.633,2.131 0.659,4.385 0.078,6.76 L 17.128,40.172 24.105,41.88 32.47,7.719 c 0.937,-3.828 0.884,-7.385 -0.161,-10.671 -1.044,-3.286 -2.879,-6.073 -5.503,-8.358 -2.626,-2.287 -5.779,-3.88 -9.461,-4.782 -3.634,-0.89 -7.143,-0.928 -10.527,-0.111 -3.384,0.813 -6.298,2.437 -8.742,4.87 -2.445,2.43 -4.135,5.561 -5.073,9.389 l -8.365,34.16 7.051,1.727 z"
             style="fill:#0047ab;fill-opacity:1;fill-rule:nonzero;stroke:none"
             id="path250" />
        </g>
        <g
           id="g252"
           transform="translate(1020.9705,1358.4856)">
          <path
             d="m 0,0 c -1.822,0.993 -3.822,1.865 -5.999,2.617 -2.178,0.753 -4.313,1.154 -6.408,1.206 -2.892,0.071 -5.215,-0.546 -6.969,-1.85 -1.754,-1.304 -2.658,-3.079 -2.713,-5.323 -0.041,-1.696 0.484,-3.143 1.578,-4.342 1.093,-1.2 2.514,-2.246 4.264,-3.136 1.75,-0.893 3.612,-1.735 5.589,-2.533 1.632,-0.639 3.26,-1.39 4.885,-2.254 1.626,-0.863 3.085,-1.909 4.377,-3.139 1.292,-1.229 2.302,-2.726 3.034,-4.49 0.729,-1.766 1.064,-3.919 1.001,-6.463 -0.071,-2.892 -0.846,-5.492 -2.324,-7.801 -1.48,-2.31 -3.557,-4.105 -6.233,-5.386 -2.677,-1.282 -5.86,-1.877 -9.55,-1.787 -2.345,0.057 -4.595,0.375 -6.751,0.952 -2.157,0.577 -4.147,1.336 -5.97,2.28 -1.823,0.943 -3.447,1.906 -4.869,2.888 l 3.356,5.607 c 1.177,-0.878 2.528,-1.722 4.055,-2.532 1.526,-0.812 3.132,-1.462 4.818,-1.952 1.683,-0.49 3.324,-0.755 4.92,-0.795 1.745,-0.043 3.448,0.215 5.109,0.773 1.661,0.559 3.055,1.47 4.184,2.742 1.129,1.269 1.72,2.976 1.772,5.121 0.045,1.795 -0.404,3.328 -1.346,4.6 -0.942,1.269 -2.188,2.36 -3.737,3.272 -1.55,0.911 -3.239,1.738 -5.067,2.482 -1.731,0.642 -3.447,1.382 -5.147,2.222 -1.701,0.839 -3.274,1.84 -4.717,2.998 -1.444,1.158 -2.607,2.571 -3.489,4.239 -0.883,1.669 -1.295,3.674 -1.237,6.02 0.069,2.842 0.815,5.305 2.239,7.392 1.424,2.086 3.348,3.709 5.772,4.874 2.424,1.162 5.182,1.756 8.277,1.78 3.49,-0.086 6.56,-0.586 9.208,-1.499 C -1.442,7.87 0.889,6.79 2.906,5.543 Z"
             style="fill:#0047ab;fill-opacity:1;fill-rule:nonzero;stroke:none"
             id="path254" />
        </g>
        <g
           id="g256"
           transform="translate(1131.4738,1341.5258)">
          <path
             d="M 0,0 6.517,-3.198 -14.246,-45.522 10.41,-57.616 7.345,-63.865 -23.827,-48.572 Z"
             style="fill:#0047ab;fill-opacity:1;fill-rule:nonzero;stroke:none"
             id="path258" />
        </g>
        <g
           id="g260"
           transform="translate(1189.3842,1266.7874)">
          <path
             d="M 0,0 15.093,-13.319 12.73,-19.615 -5.73,-3.327 Z m -23.946,-6.215 54.955,26.655 0.336,-0.296 -19.549,-57.896 -6.228,5.495 16.512,45.406 6.1,-0.891 -46.739,-23.227 z"
             style="fill:#0047ab;fill-opacity:1;fill-rule:nonzero;stroke:none"
             id="path262" />
        </g>
        <g
           id="g264"
           transform="translate(1257.4086,1205.5149)">
          <path
             d="m 0,0 c 1.646,-2.5 3.528,-3.858 5.644,-4.078 2.115,-0.22 4.151,0.315 6.11,1.605 2.416,1.591 3.686,3.474 3.809,5.645 0.122,2.172 -0.625,4.486 -2.244,6.945 L 9.45,15.99 -4.486,6.812 Z m -19.646,-13.297 c 1.125,-1.708 2.391,-3.085 3.796,-4.131 1.406,-1.045 2.907,-1.625 4.505,-1.737 1.597,-0.113 3.166,0.339 4.708,1.353 1.75,1.154 2.816,2.527 3.198,4.123 0.383,1.596 0.313,3.268 -0.21,5.014 -0.523,1.746 -1.293,3.39 -2.307,4.931 l -4.405,6.688 -13.935,-9.179 z m 38.571,27.554 c 2.99,-4.541 4.416,-8.725 4.278,-12.549 -0.14,-3.825 -2.146,-7.014 -6.021,-9.565 -2.416,-1.592 -4.856,-2.422 -7.319,-2.492 -2.464,-0.068 -4.833,0.535 -7.108,1.815 -2.276,1.279 -4.363,3.175 -6.258,5.69 l 2.611,2.974 c 1.919,-3.095 3.176,-6.181 3.767,-9.257 0.592,-3.075 0.458,-5.91 -0.4,-8.507 -0.859,-2.596 -2.517,-4.704 -4.975,-6.323 -2.249,-1.481 -4.445,-2.344 -6.583,-2.589 -2.139,-0.244 -4.193,0.017 -6.159,0.783 -1.968,0.764 -3.775,1.874 -5.42,3.33 -1.646,1.455 -3.113,3.162 -4.402,5.12 l -8.85,13.436 45.183,29.758 z"
             style="fill:#0047ab;fill-opacity:1;fill-rule:nonzero;stroke:none"
             id="path266" />
        </g>
        <g
           id="g268"
           transform="translate(1309.3217,1127.2732)">
          <path
             d="m 0,0 c 0.297,2.053 0.421,4.232 0.371,6.534 -0.051,2.304 -0.416,4.446 -1.095,6.428 -0.939,2.738 -2.323,4.701 -4.156,5.893 -1.832,1.192 -3.809,1.424 -5.933,0.696 -1.605,-0.55 -2.781,-1.547 -3.525,-2.988 -0.745,-1.442 -1.232,-3.138 -1.46,-5.089 -0.229,-1.95 -0.373,-3.989 -0.433,-6.121 -0.033,-1.75 -0.172,-3.539 -0.417,-5.363 -0.245,-1.824 -0.719,-3.555 -1.423,-5.195 -0.705,-1.637 -1.757,-3.106 -3.158,-4.403 -1.402,-1.298 -3.305,-2.359 -5.711,-3.184 -2.738,-0.937 -5.446,-1.115 -8.124,-0.529 -2.681,0.584 -5.085,1.91 -7.216,3.974 -2.132,2.064 -3.796,4.843 -4.992,8.334 -0.761,2.22 -1.245,4.439 -1.452,6.661 -0.209,2.223 -0.187,4.354 0.064,6.39 0.251,2.038 0.59,3.894 1.018,5.57 l 6.423,-1.2 c -0.415,-1.407 -0.737,-2.968 -0.966,-4.681 -0.232,-1.714 -0.283,-3.446 -0.158,-5.197 0.125,-1.749 0.446,-3.379 0.965,-4.89 0.565,-1.651 1.398,-3.16 2.498,-4.522 1.101,-1.364 2.441,-2.354 4.024,-2.972 1.583,-0.617 3.389,-0.579 5.419,0.117 1.699,0.582 2.98,1.534 3.845,2.86 0.863,1.325 1.454,2.872 1.771,4.641 0.316,1.769 0.505,3.641 0.568,5.613 0,1.847 0.099,3.712 0.296,5.599 0.197,1.887 0.588,3.709 1.173,5.465 0.584,1.756 1.506,3.337 2.764,4.745 1.258,1.406 2.995,2.489 5.214,3.249 2.69,0.922 5.259,1.079 7.711,0.467 2.45,-0.61 4.641,-1.85 6.574,-3.719 C 2.411,21.314 3.925,18.934 5.024,16.04 6.156,12.737 6.753,9.684 6.816,6.885 6.878,4.085 6.676,1.525 6.207,-0.799 Z"
             style="fill:#0047ab;fill-opacity:1;fill-rule:nonzero;stroke:none"
             id="path270" />
        </g>
        <g
           id="g272"
           transform="translate(703.1277,1069.8511)">
          <path
             d="m 0,0 c 0,-7.191 -5.83,-13.021 -13.021,-13.021 -7.192,0 -13.022,5.83 -13.022,13.021 0,7.191 5.83,13.021 13.022,13.021 C -5.83,13.021 0,7.191 0,0"
             style="fill:#0047ab;fill-opacity:1;fill-rule:nonzero;stroke:none"
             id="path274" />
        </g>
        <g
           id="g276"
           transform="translate(1314.3448,1069.8511)">
          <path
             d="m 0,0 c 0,-7.191 -5.83,-13.021 -13.021,-13.021 -7.192,0 -13.022,5.83 -13.022,13.021 0,7.191 5.83,13.021 13.022,13.021 C -5.83,13.021 0,7.191 0,0"
             style="fill:#0047ab;fill-opacity:1;fill-rule:nonzero;stroke:none"
             id="path278" />
        </g>
      </g>
    </g>
  </g>
  <g
     id="g282"
     inkscape:groupmode="layer"
     inkscape:label="Page 4"
     transform="matrix(1.3333333,0,0,-1.3333333,8060,2666.6667)">
    <path
       d="M 0,0 H 2000 V 2000 H 0 Z"
       style="fill:#0047ab;fill-opacity:1;fill-rule:nonzero;stroke:none"
       id="path284" />
    <g
       id="g286"
       transform="matrix(2.4351056,0,0,2.4351056,-1431.9699,-1435.1055)">
      <g
         id="g288"
         clip-path="url(#clipPath292)">
        <g
           id="g294"
           transform="translate(720.192,667.2485)">
          <path
             d="m 0,0 c -1.44,0.739 -3.016,1.381 -4.728,1.926 -1.713,0.545 -3.385,0.817 -5.02,0.817 -2.258,0 -4.057,-0.525 -5.4,-1.575 -1.342,-1.052 -2.013,-2.453 -2.013,-4.204 0,-1.322 0.438,-2.442 1.313,-3.356 0.876,-0.915 2.004,-1.703 3.386,-2.364 1.38,-0.662 2.85,-1.285 4.407,-1.868 1.284,-0.467 2.568,-1.022 3.852,-1.664 1.284,-0.642 2.442,-1.429 3.473,-2.363 1.031,-0.935 1.848,-2.083 2.452,-3.444 0.603,-1.363 0.905,-3.036 0.905,-5.02 0,-2.257 -0.555,-4.3 -1.664,-6.129 -1.109,-1.83 -2.695,-3.27 -4.757,-4.32 -2.063,-1.051 -4.534,-1.577 -7.414,-1.577 -1.829,0 -3.589,0.206 -5.282,0.614 -1.693,0.408 -3.26,0.963 -4.699,1.663 -1.44,0.701 -2.724,1.421 -3.852,2.161 l 2.51,4.436 c 0.933,-0.663 2.003,-1.294 3.21,-1.897 1.206,-0.605 2.471,-1.08 3.794,-1.431 1.323,-0.35 2.607,-0.525 3.853,-0.525 1.361,0 2.685,0.233 3.969,0.7 1.284,0.468 2.354,1.206 3.21,2.219 0.856,1.011 1.285,2.353 1.285,4.027 0,1.401 -0.38,2.588 -1.139,3.561 -0.759,0.972 -1.751,1.799 -2.977,2.481 -1.225,0.68 -2.559,1.293 -3.998,1.838 -1.363,0.467 -2.714,1.012 -4.057,1.635 -1.342,0.622 -2.588,1.371 -3.736,2.247 -1.148,0.875 -2.082,1.955 -2.802,3.24 -0.72,1.284 -1.079,2.84 -1.079,4.67 0,2.217 0.534,4.153 1.605,5.807 1.069,1.655 2.539,2.958 4.407,3.912 1.868,0.953 4.007,1.468 6.421,1.546 2.723,0 5.126,-0.331 7.209,-0.992 2.081,-0.662 3.92,-1.459 5.516,-2.393 z"
             style="fill:#ffffff;fill-opacity:1;fill-rule:nonzero;stroke:none"
             id="path296" />
        </g>
        <g
           id="g298"
           transform="translate(763.3281,635.7276)">
          <path
             d="m 0,0 c -0.701,-0.467 -1.654,-0.993 -2.86,-1.577 -1.207,-0.583 -2.618,-1.07 -4.232,-1.459 -1.615,-0.388 -3.396,-0.584 -5.341,-0.584 -3.231,0.04 -6.158,0.623 -8.785,1.751 -2.627,1.129 -4.865,2.666 -6.713,4.612 -1.849,1.946 -3.26,4.193 -4.232,6.742 -0.973,2.549 -1.459,5.263 -1.459,8.143 0,3.152 0.505,6.061 1.517,8.727 1.011,2.665 2.461,4.98 4.349,6.946 1.887,1.965 4.105,3.493 6.654,4.583 2.549,1.088 5.342,1.634 8.377,1.634 2.529,0 4.825,-0.341 6.888,-1.022 2.062,-0.681 3.832,-1.47 5.311,-2.363 l -2.276,-5.371 c -1.167,0.817 -2.588,1.576 -4.261,2.276 -1.673,0.7 -3.502,1.052 -5.487,1.052 -2.063,0 -4.008,-0.41 -5.837,-1.227 -1.83,-0.816 -3.444,-1.966 -4.845,-3.443 -1.401,-1.48 -2.501,-3.193 -3.298,-5.138 -0.798,-1.946 -1.197,-4.066 -1.197,-6.362 0,-2.258 0.359,-4.369 1.08,-6.333 0.72,-1.966 1.751,-3.678 3.094,-5.137 1.342,-1.46 2.967,-2.598 4.874,-3.415 1.906,-0.817 4.047,-1.226 6.421,-1.226 2.14,0 4.047,0.331 5.72,0.992 1.673,0.662 3.055,1.401 4.145,2.219 z"
             style="fill:#ffffff;fill-opacity:1;fill-rule:nonzero;stroke:none"
             id="path300" />
        </g>
        <path
           d="m 772.842,674.779 h 5.662 v -42.204 h -5.662 z"
           style="fill:#ffffff;fill-opacity:1;fill-rule:nonzero;stroke:none"
           id="path302" />
        <g
           id="g304"
           transform="translate(790.6455,674.7788)">
          <path
             d="M 0,0 H 27.435 V -5.429 H 5.662 V -18.271 H 25.1 v -5.487 H 5.662 v -13.016 h 22.59 v -5.43 H 0 Z"
             style="fill:#ffffff;fill-opacity:1;fill-rule:nonzero;stroke:none"
             id="path306" />
        </g>
        <g
           id="g308"
           transform="translate(865.2444,631.2322)">
          <path
             d="m 0,0 -32.63,33.098 1.635,-0.409 0.116,-31.346 h -5.662 V 44.83 h 0.292 L -4.028,11.616 -5.312,11.908 -5.429,43.547 H 0.234 V 0 Z"
             style="fill:#ffffff;fill-opacity:1;fill-rule:nonzero;stroke:none"
             id="path310" />
        </g>
        <g
           id="g312"
           transform="translate(874.4078,674.7788)">
          <path
             d="M 0,0 H 28.077 V -5.429 H 16.753 V -42.204 H 11.091 V -5.429 H 0 Z"
             style="fill:#ffffff;fill-opacity:1;fill-rule:nonzero;stroke:none"
             id="path314" />
        </g>
        <path
           d="m 911.474,674.779 h 5.662 v -42.204 h -5.662 z"
           style="fill:#ffffff;fill-opacity:1;fill-rule:nonzero;stroke:none"
           id="path316" />
        <g
           id="g318"
           transform="translate(929.2776,674.7788)">
          <path
             d="M 0,0 H 25.041 V -5.429 H 5.662 v -13.426 h 16.986 v -5.429 H 5.662 v -17.92 H 0 Z"
             style="fill:#ffffff;fill-opacity:1;fill-rule:nonzero;stroke:none"
             id="path320" />
        </g>
        <path
           d="m 963.658,674.779 h 5.662 v -42.204 h -5.662 z"
           style="fill:#ffffff;fill-opacity:1;fill-rule:nonzero;stroke:none"
           id="path322" />
        <g
           id="g324"
           transform="translate(1012.456,635.7276)">
          <path
             d="m 0,0 c -0.701,-0.467 -1.654,-0.993 -2.86,-1.577 -1.206,-0.583 -2.618,-1.07 -4.232,-1.459 -1.615,-0.388 -3.395,-0.584 -5.341,-0.584 -3.231,0.04 -6.158,0.623 -8.785,1.751 -2.627,1.129 -4.865,2.666 -6.713,4.612 -1.849,1.946 -3.26,4.193 -4.232,6.742 -0.973,2.549 -1.459,5.263 -1.459,8.143 0,3.152 0.505,6.061 1.517,8.727 1.012,2.665 2.461,4.98 4.349,6.946 1.887,1.965 4.105,3.493 6.654,4.583 2.549,1.088 5.342,1.634 8.377,1.634 2.529,0 4.825,-0.341 6.888,-1.022 2.062,-0.681 3.832,-1.47 5.311,-2.363 l -2.276,-5.371 c -1.167,0.817 -2.588,1.576 -4.261,2.276 -1.673,0.7 -3.502,1.052 -5.487,1.052 -2.063,0 -4.008,-0.41 -5.837,-1.227 -1.83,-0.816 -3.444,-1.966 -4.845,-3.443 -1.401,-1.48 -2.501,-3.193 -3.298,-5.138 -0.798,-1.946 -1.197,-4.066 -1.197,-6.362 0,-2.258 0.36,-4.369 1.08,-6.333 0.72,-1.966 1.751,-3.678 3.094,-5.137 1.343,-1.46 2.967,-2.598 4.874,-3.415 1.906,-0.817 4.047,-1.226 6.421,-1.226 2.14,0 4.047,0.331 5.72,0.992 1.673,0.662 3.055,1.401 4.145,2.219 z"
             style="fill:#ffffff;fill-opacity:1;fill-rule:nonzero;stroke:none"
             id="path326" />
        </g>
        <path
           d="m 1040.416,674.779 h 5.662 v -42.204 h -5.662 z"
           style="fill:#ffffff;fill-opacity:1;fill-rule:nonzero;stroke:none"
           id="path328" />
        <g
           id="g330"
           transform="translate(1094.759,631.2322)">
          <path
             d="m 0,0 -32.63,33.098 1.635,-0.409 0.116,-31.346 h -5.662 V 44.83 h 0.292 L -4.028,11.616 -5.312,11.908 -5.429,43.547 H 0.234 V 0 Z"
             style="fill:#ffffff;fill-opacity:1;fill-rule:nonzero;stroke:none"
             id="path332" />
        </g>
        <g
           id="g334"
           transform="translate(1128.9063,667.2485)">
          <path
             d="m 0,0 c -1.44,0.739 -3.016,1.381 -4.728,1.926 -1.713,0.545 -3.386,0.817 -5.02,0.817 -2.258,0 -4.057,-0.525 -5.4,-1.575 -1.342,-1.052 -2.013,-2.453 -2.013,-4.204 0,-1.322 0.438,-2.442 1.313,-3.356 0.876,-0.915 2.004,-1.703 3.386,-2.364 1.38,-0.662 2.85,-1.285 4.407,-1.868 1.284,-0.467 2.568,-1.022 3.852,-1.664 1.284,-0.642 2.442,-1.429 3.473,-2.363 1.031,-0.935 1.848,-2.083 2.452,-3.444 0.603,-1.363 0.905,-3.036 0.905,-5.02 0,-2.257 -0.555,-4.3 -1.664,-6.129 -1.109,-1.83 -2.695,-3.27 -4.757,-4.32 -2.063,-1.051 -4.534,-1.577 -7.414,-1.577 -1.829,0 -3.589,0.206 -5.282,0.614 -1.693,0.408 -3.26,0.963 -4.699,1.663 -1.44,0.701 -2.724,1.421 -3.853,2.161 l 2.511,4.436 c 0.933,-0.663 2.003,-1.294 3.21,-1.897 1.206,-0.605 2.47,-1.08 3.794,-1.431 1.323,-0.35 2.607,-0.525 3.852,-0.525 1.362,0 2.686,0.233 3.97,0.7 1.284,0.468 2.354,1.206 3.21,2.219 0.856,1.011 1.284,2.353 1.284,4.027 0,1.401 -0.379,2.588 -1.138,3.561 -0.759,0.972 -1.751,1.799 -2.977,2.481 -1.225,0.68 -2.559,1.293 -3.998,1.838 -1.363,0.467 -2.714,1.012 -4.057,1.635 -1.342,0.622 -2.588,1.371 -3.736,2.247 -1.148,0.875 -2.082,1.955 -2.802,3.24 -0.72,1.284 -1.079,2.84 -1.079,4.67 0,2.217 0.534,4.153 1.605,5.807 1.069,1.655 2.539,2.958 4.407,3.912 1.868,0.953 4.007,1.468 6.421,1.546 2.723,0 5.126,-0.331 7.209,-0.992 2.081,-0.662 3.92,-1.459 5.516,-2.393 z"
             style="fill:#ffffff;fill-opacity:1;fill-rule:nonzero;stroke:none"
             id="path336" />
        </g>
        <path
           d="m 1141.047,674.779 h 5.662 v -42.204 h -5.662 z"
           style="fill:#ffffff;fill-opacity:1;fill-rule:nonzero;stroke:none"
           id="path338" />
        <g
           id="g340"
           transform="translate(1191.8887,636.1939)">
          <path
             d="m 0,0 c -0.584,-0.506 -1.401,-1.002 -2.452,-1.488 -1.05,-0.487 -2.209,-0.924 -3.473,-1.313 -1.265,-0.39 -2.559,-0.701 -3.881,-0.934 -1.324,-0.234 -2.589,-0.351 -3.794,-0.351 -3.386,0 -6.441,0.526 -9.165,1.577 -2.724,1.05 -5.049,2.509 -6.976,4.378 -1.926,1.867 -3.395,4.065 -4.407,6.595 -1.012,2.53 -1.517,5.253 -1.517,8.172 0,3.58 0.573,6.752 1.722,9.515 1.147,2.763 2.714,5.108 4.699,7.034 1.984,1.926 4.29,3.385 6.917,4.378 2.626,0.992 5.379,1.488 8.26,1.488 2.489,0 4.786,-0.283 6.888,-0.846 2.101,-0.564 3.949,-1.313 5.545,-2.247 l -1.868,-5.195 c -0.818,0.427 -1.8,0.846 -2.948,1.255 -1.149,0.408 -2.326,0.739 -3.531,0.992 -1.207,0.253 -2.316,0.379 -3.328,0.379 -2.53,0 -4.796,-0.379 -6.8,-1.139 -2.005,-0.758 -3.736,-1.848 -5.195,-3.268 -1.459,-1.421 -2.579,-3.133 -3.356,-5.136 -0.78,-2.006 -1.168,-4.253 -1.168,-6.742 0,-2.258 0.388,-4.349 1.168,-6.276 0.777,-1.926 1.897,-3.581 3.356,-4.961 1.459,-1.382 3.181,-2.442 5.166,-3.181 1.985,-0.74 4.203,-1.109 6.654,-1.109 1.401,0 2.802,0.135 4.203,0.408 1.401,0.272 2.588,0.701 3.561,1.285 v 8.288 h -8.347 v 5.487 H 0 Z"
             style="fill:#ffffff;fill-opacity:1;fill-rule:nonzero;stroke:none"
             id="path342" />
        </g>
        <g
           id="g344"
           transform="translate(1236.0754,674.7788)">
          <path
             d="M 0,0 V -42.204 H -5.662 V -23.7 h -22.065 v -18.504 h -5.661 V 0 h 5.661 V -18.271 H -5.662 V 0 Z"
             style="fill:#ffffff;fill-opacity:1;fill-rule:nonzero;stroke:none"
             id="path346" />
        </g>
        <g
           id="g348"
           transform="translate(1245.0649,674.7788)">
          <path
             d="M 0,0 H 28.077 V -5.429 H 16.753 V -42.204 H 11.091 V -5.429 H 0 Z"
             style="fill:#ffffff;fill-opacity:1;fill-rule:nonzero;stroke:none"
             id="path350" />
        </g>
        <g
           id="g352"
           transform="translate(1303.962,667.2485)">
          <path
             d="m 0,0 c -1.44,0.739 -3.016,1.381 -4.728,1.926 -1.713,0.545 -3.385,0.817 -5.02,0.817 -2.257,0 -4.057,-0.525 -5.4,-1.575 -1.342,-1.052 -2.013,-2.453 -2.013,-4.204 0,-1.322 0.438,-2.442 1.313,-3.356 0.876,-0.915 2.004,-1.703 3.386,-2.364 1.38,-0.662 2.85,-1.285 4.407,-1.868 1.284,-0.467 2.568,-1.022 3.852,-1.664 1.284,-0.642 2.442,-1.429 3.473,-2.363 1.031,-0.935 1.848,-2.083 2.452,-3.444 0.603,-1.363 0.905,-3.036 0.905,-5.02 0,-2.257 -0.555,-4.3 -1.664,-6.129 -1.109,-1.83 -2.695,-3.27 -4.757,-4.32 -2.063,-1.051 -4.534,-1.577 -7.414,-1.577 -1.829,0 -3.589,0.206 -5.282,0.614 -1.692,0.408 -3.26,0.963 -4.699,1.663 -1.44,0.701 -2.724,1.421 -3.852,2.161 l 2.51,4.436 c 0.933,-0.663 2.003,-1.294 3.21,-1.897 1.206,-0.605 2.471,-1.08 3.794,-1.431 1.323,-0.35 2.607,-0.525 3.853,-0.525 1.361,0 2.685,0.233 3.969,0.7 1.284,0.468 2.354,1.206 3.21,2.219 0.856,1.011 1.285,2.353 1.285,4.027 0,1.401 -0.379,2.588 -1.139,3.561 -0.759,0.972 -1.751,1.799 -2.977,2.481 -1.225,0.68 -2.559,1.293 -3.998,1.838 -1.363,0.467 -2.714,1.012 -4.057,1.635 -1.342,0.622 -2.588,1.371 -3.736,2.247 -1.148,0.875 -2.082,1.955 -2.802,3.24 -0.72,1.284 -1.079,2.84 -1.079,4.67 0,2.217 0.534,4.153 1.605,5.807 1.07,1.655 2.539,2.958 4.407,3.912 1.868,0.953 4.007,1.468 6.421,1.546 2.723,0 5.126,-0.331 7.209,-0.992 2.081,-0.662 3.92,-1.459 5.516,-2.393 z"
             style="fill:#ffffff;fill-opacity:1;fill-rule:nonzero;stroke:none"
             id="path354" />
        </g>
        <g
           id="g356"
           transform="translate(952.1521,749.3722)">
          <path
             d="M 0,0 C 9.748,14.909 15.021,38.504 15.651,70.908 H 15.25 v 210.07 h -36.484 v 12.451 H 15.25 v 98.391 c 0,38.057 8.199,65.21 24.619,81.446 13.03,12.894 32.477,20.757 58.28,23.634 -21.767,5.836 -44.946,8.221 -68.922,6.495 -103.36,-7.442 -184.605,-89.683 -190.902,-193.119 -3.77,-61.93 19.769,-118.402 59.711,-158.552 38.801,-39.002 59.85,-89.241 65.538,-143.146 1.937,-18.356 25.713,-24.468 36.035,-9.167 C -0.26,-0.394 -0.13,-0.198 0,0"
             style="fill:#ffffff;fill-opacity:1;fill-rule:nonzero;stroke:none"
             id="path358" />
        </g>
        <g
           id="g360"
           transform="translate(1083.9833,1235.9124)">
          <path
             d="m 0,0 c -20.847,9.172 -45.601,3.264 -58.852,-15.26 -0.394,-0.551 -0.78,-1.112 -1.156,-1.683 -10.48,-15.893 -15.72,-41.818 -15.72,-77.777 l 0.149,-98.391 h 36.806 v -12.451 h -36.795 l 0.069,-39.839 0.011,-12.67 0.23,-150.681 c 0,-38.057 -8.198,-65.209 -24.619,-81.446 -9.394,-9.295 -22.127,-15.974 -38.161,-20.063 H -3.76 v 0.706 c 0,66.038 24.589,130.077 70.173,177.86 35.355,37.059 57.066,87.241 57.066,142.508 C 123.479,-104.657 72.709,-31.988 0,0"
             style="fill:#ffffff;fill-opacity:1;fill-rule:nonzero;stroke:none"
             id="path362" />
        </g>
        <g
           id="g364"
           transform="translate(679.4813,1130.7698)">
          <path
             d="m 0,0 10.466,30.348 6.578,-2.269 -8.099,-23.486 16.271,-5.612 7.099,20.587 6.579,-2.27 -7.099,-20.586 21.717,-7.49 -2.366,-6.86 z"
             style="fill:#ffffff;fill-opacity:1;fill-rule:nonzero;stroke:none"
             id="path366" />
        </g>
        <g
           id="g368"
           transform="translate(712.1899,1204.9634)">
          <path
             d="M 0,0 3.763,6.207 50.026,-21.844 46.263,-28.05 Z"
             style="fill:#ffffff;fill-opacity:1;fill-rule:nonzero;stroke:none"
             id="path370" />
        </g>
        <g
           id="g372"
           transform="translate(786.0143,1226.7415)">
          <path
             d="m 0,0 6.141,6.241 c 2.065,2.097 3.66,4.359 4.788,6.784 1.126,2.425 1.742,4.9 1.845,7.423 0.104,2.523 -0.358,5.025 -1.383,7.503 -1.026,2.479 -2.676,4.837 -4.951,7.077 -2.347,2.309 -4.804,3.956 -7.369,4.941 -2.565,0.985 -5.117,1.396 -7.656,1.236 -2.538,-0.162 -4.958,-0.79 -7.261,-1.884 -2.301,-1.095 -4.362,-2.567 -6.181,-4.415 l -6.614,-6.721 z m -0.131,-10.054 -38.561,37.947 10.34,10.508 c 3.779,3.839 7.559,6.523 11.338,8.054 3.78,1.529 7.453,2.166 11.018,1.914 3.565,-0.254 6.87,-1.144 9.916,-2.672 3.047,-1.529 5.742,-3.446 8.089,-5.756 2.916,-2.87 5.031,-5.948 6.344,-9.235 1.315,-3.289 1.923,-6.618 1.826,-9.987 -0.095,-3.37 -0.837,-6.63 -2.223,-9.78 C 16.571,7.788 14.618,4.933 12.099,2.373 Z"
             style="fill:#ffffff;fill-opacity:1;fill-rule:nonzero;stroke:none"
             id="path374" />
        </g>
        <g
           id="g376"
           transform="translate(820.2522,1317.1086)">
          <path
             d="m 0,0 30.581,17.369 3.437,-6.051 -24.27,-13.784 8.131,-14.315 21.667,12.307 3.473,-6.117 -21.666,-12.307 8.241,-14.509 25.181,14.302 3.437,-6.051 -31.492,-17.887 z"
             style="fill:#ffffff;fill-opacity:1;fill-rule:nonzero;stroke:none"
             id="path378" />
        </g>
        <g
           id="g380"
           transform="translate(915.1398,1321.9895)">
          <path
             d="m 0,0 c 0.582,-2.374 1.67,-4.355 3.265,-5.942 1.595,-1.586 3.48,-2.68 5.656,-3.275 2.175,-0.598 4.426,-0.612 6.751,-0.043 2.472,0.605 4.546,1.678 6.223,3.218 1.677,1.541 2.832,3.378 3.466,5.511 0.633,2.131 0.659,4.385 0.078,6.76 L 17.128,40.172 24.105,41.88 32.47,7.719 c 0.937,-3.828 0.884,-7.385 -0.161,-10.671 -1.044,-3.286 -2.879,-6.073 -5.503,-8.358 -2.626,-2.287 -5.779,-3.88 -9.461,-4.782 -3.634,-0.89 -7.143,-0.928 -10.527,-0.111 -3.384,0.813 -6.298,2.437 -8.742,4.87 -2.445,2.43 -4.135,5.561 -5.073,9.389 l -8.365,34.16 7.051,1.727 z"
             style="fill:#ffffff;fill-opacity:1;fill-rule:nonzero;stroke:none"
             id="path382" />
        </g>
        <g
           id="g384"
           transform="translate(1020.9705,1358.4856)">
          <path
             d="m 0,0 c -1.822,0.993 -3.822,1.865 -5.999,2.617 -2.178,0.753 -4.313,1.154 -6.408,1.206 -2.892,0.071 -5.215,-0.546 -6.969,-1.85 -1.754,-1.304 -2.658,-3.079 -2.713,-5.323 -0.041,-1.696 0.484,-3.143 1.578,-4.342 1.093,-1.2 2.514,-2.246 4.264,-3.136 1.75,-0.893 3.612,-1.735 5.589,-2.533 1.632,-0.639 3.26,-1.39 4.885,-2.254 1.626,-0.863 3.085,-1.909 4.377,-3.139 1.292,-1.229 2.302,-2.726 3.034,-4.49 0.729,-1.766 1.064,-3.919 1.001,-6.463 -0.071,-2.892 -0.846,-5.492 -2.324,-7.801 -1.48,-2.31 -3.557,-4.105 -6.233,-5.386 -2.677,-1.282 -5.86,-1.877 -9.55,-1.787 -2.345,0.057 -4.595,0.375 -6.751,0.952 -2.157,0.577 -4.147,1.336 -5.97,2.28 -1.823,0.943 -3.447,1.906 -4.869,2.888 l 3.356,5.607 c 1.177,-0.878 2.528,-1.722 4.055,-2.532 1.526,-0.812 3.132,-1.462 4.818,-1.952 1.683,-0.49 3.324,-0.755 4.92,-0.795 1.745,-0.043 3.448,0.215 5.109,0.773 1.661,0.559 3.055,1.47 4.184,2.742 1.129,1.269 1.72,2.976 1.772,5.121 0.045,1.795 -0.404,3.328 -1.346,4.6 -0.942,1.269 -2.188,2.36 -3.737,3.272 -1.55,0.911 -3.239,1.738 -5.067,2.482 -1.731,0.642 -3.447,1.382 -5.147,2.222 -1.701,0.839 -3.274,1.84 -4.717,2.998 -1.444,1.158 -2.607,2.571 -3.489,4.239 -0.883,1.669 -1.295,3.674 -1.237,6.02 0.069,2.842 0.815,5.305 2.239,7.392 1.424,2.086 3.348,3.709 5.772,4.874 2.424,1.162 5.182,1.756 8.277,1.78 3.49,-0.086 6.56,-0.586 9.208,-1.499 C -1.442,7.87 0.889,6.79 2.906,5.543 Z"
             style="fill:#ffffff;fill-opacity:1;fill-rule:nonzero;stroke:none"
             id="path386" />
        </g>
        <g
           id="g388"
           transform="translate(1131.4738,1341.5258)">
          <path
             d="M 0,0 6.517,-3.198 -14.246,-45.522 10.41,-57.616 7.345,-63.865 -23.827,-48.572 Z"
             style="fill:#ffffff;fill-opacity:1;fill-rule:nonzero;stroke:none"
             id="path390" />
        </g>
        <g
           id="g392"
           transform="translate(1189.3842,1266.7874)">
          <path
             d="M 0,0 15.093,-13.319 12.73,-19.615 -5.73,-3.327 Z m -23.946,-6.215 54.955,26.655 0.336,-0.296 -19.549,-57.896 -6.228,5.495 16.512,45.406 6.1,-0.891 -46.739,-23.227 z"
             style="fill:#ffffff;fill-opacity:1;fill-rule:nonzero;stroke:none"
             id="path394" />
        </g>
        <g
           id="g396"
           transform="translate(1257.4086,1205.5149)">
          <path
             d="m 0,0 c 1.646,-2.5 3.528,-3.858 5.644,-4.078 2.115,-0.22 4.151,0.315 6.11,1.605 2.416,1.591 3.686,3.474 3.809,5.645 0.122,2.172 -0.625,4.486 -2.244,6.945 L 9.45,15.99 -4.486,6.812 Z m -19.646,-13.297 c 1.125,-1.708 2.391,-3.085 3.796,-4.131 1.406,-1.045 2.907,-1.625 4.505,-1.737 1.597,-0.113 3.166,0.339 4.708,1.353 1.75,1.154 2.816,2.527 3.198,4.123 0.383,1.596 0.313,3.268 -0.21,5.014 -0.523,1.746 -1.293,3.39 -2.307,4.931 l -4.405,6.688 -13.935,-9.179 z m 38.571,27.554 c 2.99,-4.541 4.416,-8.725 4.278,-12.549 -0.14,-3.825 -2.146,-7.014 -6.021,-9.565 -2.416,-1.592 -4.856,-2.422 -7.319,-2.492 -2.464,-0.068 -4.833,0.535 -7.108,1.815 -2.276,1.279 -4.363,3.175 -6.258,5.69 l 2.611,2.974 c 1.919,-3.095 3.176,-6.181 3.767,-9.257 0.592,-3.075 0.458,-5.91 -0.4,-8.507 -0.859,-2.596 -2.517,-4.704 -4.975,-6.323 -2.249,-1.481 -4.445,-2.344 -6.583,-2.589 -2.139,-0.244 -4.193,0.017 -6.159,0.783 -1.968,0.764 -3.775,1.874 -5.42,3.33 -1.646,1.455 -3.113,3.162 -4.402,5.12 l -8.85,13.436 45.183,29.758 z"
             style="fill:#ffffff;fill-opacity:1;fill-rule:nonzero;stroke:none"
             id="path398" />
        </g>
        <g
           id="g400"
           transform="translate(1309.3217,1127.2732)">
          <path
             d="m 0,0 c 0.297,2.053 0.421,4.232 0.371,6.534 -0.051,2.304 -0.416,4.446 -1.095,6.428 -0.939,2.738 -2.323,4.701 -4.156,5.893 -1.832,1.192 -3.809,1.424 -5.933,0.696 -1.605,-0.55 -2.781,-1.547 -3.525,-2.988 -0.745,-1.442 -1.232,-3.138 -1.46,-5.089 -0.229,-1.95 -0.373,-3.989 -0.433,-6.121 -0.033,-1.75 -0.172,-3.539 -0.417,-5.363 -0.245,-1.824 -0.719,-3.555 -1.423,-5.195 -0.705,-1.637 -1.757,-3.106 -3.158,-4.403 -1.402,-1.298 -3.305,-2.359 -5.711,-3.184 -2.738,-0.937 -5.446,-1.115 -8.124,-0.529 -2.681,0.584 -5.085,1.91 -7.216,3.974 -2.132,2.064 -3.796,4.843 -4.992,8.334 -0.761,2.22 -1.245,4.439 -1.452,6.661 -0.209,2.223 -0.187,4.354 0.064,6.39 0.251,2.038 0.59,3.894 1.018,5.57 l 6.423,-1.2 c -0.415,-1.407 -0.737,-2.968 -0.966,-4.681 -0.232,-1.714 -0.283,-3.446 -0.158,-5.197 0.125,-1.749 0.446,-3.379 0.965,-4.89 0.565,-1.651 1.398,-3.16 2.498,-4.522 1.101,-1.364 2.441,-2.354 4.024,-2.972 1.583,-0.617 3.389,-0.579 5.419,0.117 1.699,0.582 2.98,1.534 3.845,2.86 0.863,1.325 1.454,2.872 1.771,4.641 0.316,1.769 0.505,3.641 0.568,5.613 0,1.847 0.099,3.712 0.296,5.599 0.197,1.887 0.588,3.709 1.173,5.465 0.584,1.756 1.506,3.337 2.764,4.745 1.258,1.406 2.995,2.489 5.214,3.249 2.69,0.922 5.259,1.079 7.711,0.467 2.45,-0.61 4.641,-1.85 6.574,-3.719 C 2.411,21.314 3.925,18.934 5.024,16.04 6.156,12.737 6.753,9.684 6.816,6.885 6.878,4.085 6.676,1.525 6.207,-0.799 Z"
             style="fill:#ffffff;fill-opacity:1;fill-rule:nonzero;stroke:none"
             id="path402" />
        </g>
      </g>
    </g>
  </g>
  <g
     id="g406"
     inkscape:groupmode="layer"
     inkscape:label="Page 5"
     transform="matrix(1.3333333,0,0,-1.3333333,10746.667,2666.6667)">
    <path
       d="M 0,0 H 2000 V 2000 H 0 Z"
       style="fill:#0047ab;fill-opacity:1;fill-rule:nonzero;stroke:none"
       id="path408" />
    <g
       id="g410"
       transform="matrix(2.7537846,0,0,2.7537846,-1754.9859,-1740.5932)">
      <g
         id="g412"
         clip-path="url(#clipPath416)">
        <g
           id="g418"
           transform="translate(943.9064,700.0499)">
          <path
             d="M 0,0 C 11.872,18.157 18.294,46.894 19.062,86.358 H 18.573 V 342.199 H -25.86 v 15.163 h 44.433 v 119.829 c 0,46.349 9.985,79.418 29.983,99.192 15.869,15.703 39.553,25.279 70.978,28.784 -26.51,7.107 -54.739,10.011 -83.939,7.909 -125.881,-9.062 -224.827,-109.222 -232.496,-235.196 -4.592,-75.424 24.077,-144.2 72.721,-193.097 47.255,-47.501 72.89,-108.686 79.818,-174.336 2.359,-22.356 31.315,-29.8 43.886,-11.164 C -0.316,-0.48 -0.158,-0.241 0,0"
             style="fill:#ffffff;fill-opacity:1;fill-rule:nonzero;stroke:none"
             id="path420" />
        </g>
        <g
           id="g422"
           transform="translate(1104.4615,1292.5992)">
          <path
             d="m 0,0 c -25.39,11.17 -55.537,3.975 -71.675,-18.585 -0.48,-0.671 -0.949,-1.354 -1.408,-2.05 -12.764,-19.355 -19.145,-50.929 -19.145,-94.723 l 0.182,-119.829 h 44.824 v -15.163 h -44.812 l 0.084,-48.52 0.015,-15.431 0.279,-183.511 c 0,-46.349 -9.984,-79.418 -29.982,-99.192 -11.441,-11.321 -26.948,-19.455 -46.476,-24.434 H -4.579 v 0.859 c 0,80.427 29.947,158.419 85.463,216.613 43.057,45.134 69.499,106.249 69.499,173.559 C 150.383,-127.46 88.551,-38.958 0,0"
             style="fill:#ffffff;fill-opacity:1;fill-rule:nonzero;stroke:none"
             id="path424" />
        </g>
      </g>
    </g>
  </g>
  <g
     id="g428"
     inkscape:groupmode="layer"
     inkscape:label="Page 6"
     transform="matrix(1.3333333,0,0,-1.3333333,13433.333,2666.6667)">
    <path
       d="M 0,0 H 2000 V 2000 H 0 Z"
       style="fill:#0047ab;fill-opacity:1;fill-rule:nonzero;stroke:none"
       id="path430" />
    <g
       id="g432">
      <g
         id="g434"
         clip-path="url(#clipPath438)">
        <g
           id="g440"
           transform="translate(720.192,667.2485)">
          <path
             d="m 0,0 c -1.44,0.739 -3.016,1.381 -4.728,1.926 -1.713,0.545 -3.385,0.817 -5.02,0.817 -2.258,0 -4.057,-0.525 -5.4,-1.575 -1.342,-1.052 -2.013,-2.453 -2.013,-4.204 0,-1.322 0.438,-2.442 1.313,-3.356 0.876,-0.915 2.004,-1.703 3.386,-2.364 1.38,-0.662 2.85,-1.285 4.407,-1.868 1.284,-0.467 2.568,-1.022 3.852,-1.664 1.284,-0.642 2.442,-1.429 3.473,-2.363 1.031,-0.935 1.848,-2.083 2.452,-3.444 0.603,-1.363 0.905,-3.036 0.905,-5.02 0,-2.257 -0.555,-4.3 -1.664,-6.129 -1.109,-1.83 -2.695,-3.27 -4.757,-4.32 -2.063,-1.051 -4.534,-1.577 -7.414,-1.577 -1.829,0 -3.589,0.206 -5.282,0.614 -1.693,0.408 -3.26,0.963 -4.699,1.663 -1.44,0.701 -2.724,1.421 -3.852,2.161 l 2.51,4.436 c 0.933,-0.663 2.003,-1.294 3.21,-1.897 1.206,-0.605 2.471,-1.08 3.794,-1.431 1.323,-0.35 2.607,-0.525 3.853,-0.525 1.361,0 2.685,0.233 3.969,0.7 1.284,0.468 2.354,1.206 3.21,2.219 0.856,1.011 1.285,2.353 1.285,4.027 0,1.401 -0.38,2.588 -1.139,3.561 -0.759,0.972 -1.751,1.799 -2.977,2.481 -1.225,0.68 -2.559,1.293 -3.998,1.838 -1.363,0.467 -2.714,1.012 -4.057,1.635 -1.342,0.622 -2.588,1.371 -3.736,2.247 -1.148,0.875 -2.082,1.955 -2.802,3.24 -0.72,1.284 -1.079,2.84 -1.079,4.67 0,2.217 0.534,4.153 1.605,5.807 1.069,1.655 2.539,2.958 4.407,3.912 1.868,0.953 4.007,1.468 6.421,1.546 2.723,0 5.126,-0.331 7.209,-0.992 2.081,-0.662 3.92,-1.459 5.516,-2.393 z"
             style="fill:#ffffff;fill-opacity:1;fill-rule:nonzero;stroke:none"
             id="path442" />
        </g>
        <g
           id="g444"
           transform="translate(763.3281,635.7276)">
          <path
             d="m 0,0 c -0.701,-0.467 -1.654,-0.993 -2.86,-1.577 -1.207,-0.583 -2.618,-1.07 -4.232,-1.459 -1.615,-0.388 -3.396,-0.584 -5.341,-0.584 -3.231,0.04 -6.158,0.623 -8.785,1.751 -2.627,1.129 -4.865,2.666 -6.713,4.612 -1.849,1.946 -3.26,4.193 -4.232,6.742 -0.973,2.549 -1.459,5.263 -1.459,8.143 0,3.152 0.505,6.061 1.517,8.727 1.011,2.665 2.461,4.98 4.349,6.946 1.887,1.965 4.105,3.493 6.654,4.583 2.549,1.088 5.342,1.634 8.377,1.634 2.529,0 4.825,-0.341 6.888,-1.022 2.062,-0.681 3.832,-1.47 5.311,-2.363 l -2.276,-5.371 c -1.167,0.817 -2.588,1.576 -4.261,2.276 -1.673,0.7 -3.502,1.052 -5.487,1.052 -2.063,0 -4.008,-0.41 -5.837,-1.227 -1.83,-0.816 -3.444,-1.966 -4.845,-3.443 -1.401,-1.48 -2.501,-3.193 -3.298,-5.138 -0.798,-1.946 -1.197,-4.066 -1.197,-6.362 0,-2.258 0.359,-4.369 1.08,-6.333 0.72,-1.966 1.751,-3.678 3.094,-5.137 1.342,-1.46 2.967,-2.598 4.874,-3.415 1.906,-0.817 4.047,-1.226 6.421,-1.226 2.14,0 4.047,0.331 5.72,0.992 1.673,0.662 3.055,1.401 4.145,2.219 z"
             style="fill:#ffffff;fill-opacity:1;fill-rule:nonzero;stroke:none"
             id="path446" />
        </g>
        <path
           d="m 772.842,674.779 h 5.662 v -42.204 h -5.662 z"
           style="fill:#ffffff;fill-opacity:1;fill-rule:nonzero;stroke:none"
           id="path448" />
        <g
           id="g450"
           transform="translate(790.6455,674.7788)">
          <path
             d="M 0,0 H 27.435 V -5.429 H 5.662 V -18.271 H 25.1 v -5.487 H 5.662 v -13.016 h 22.59 v -5.43 H 0 Z"
             style="fill:#ffffff;fill-opacity:1;fill-rule:nonzero;stroke:none"
             id="path452" />
        </g>
        <g
           id="g454"
           transform="translate(865.2444,631.2322)">
          <path
             d="m 0,0 -32.63,33.098 1.635,-0.409 0.116,-31.346 h -5.662 V 44.83 h 0.292 L -4.028,11.616 -5.312,11.908 -5.429,43.547 H 0.234 L 0.234,0 Z"
             style="fill:#ffffff;fill-opacity:1;fill-rule:nonzero;stroke:none"
             id="path456" />
        </g>
        <g
           id="g458"
           transform="translate(874.4078,674.7788)">
          <path
             d="M 0,0 H 28.077 V -5.429 H 16.753 V -42.204 H 11.091 V -5.429 L 0,-5.429 Z"
             style="fill:#ffffff;fill-opacity:1;fill-rule:nonzero;stroke:none"
             id="path460" />
        </g>
        <path
           d="m 911.474,674.779 h 5.662 v -42.204 h -5.662 z"
           style="fill:#ffffff;fill-opacity:1;fill-rule:nonzero;stroke:none"
           id="path462" />
        <g
           id="g464"
           transform="translate(929.2776,674.7788)">
          <path
             d="M 0,0 H 25.041 V -5.429 H 5.662 v -13.426 h 16.986 v -5.429 H 5.662 v -17.92 H 0 Z"
             style="fill:#ffffff;fill-opacity:1;fill-rule:nonzero;stroke:none"
             id="path466" />
        </g>
        <path
           d="m 963.658,674.779 h 5.662 v -42.204 h -5.662 z"
           style="fill:#ffffff;fill-opacity:1;fill-rule:nonzero;stroke:none"
           id="path468" />
        <g
           id="g470"
           transform="translate(1012.456,635.7276)">
          <path
             d="m 0,0 c -0.701,-0.467 -1.654,-0.993 -2.86,-1.577 -1.206,-0.583 -2.618,-1.07 -4.232,-1.459 -1.615,-0.388 -3.395,-0.584 -5.341,-0.584 -3.231,0.04 -6.158,0.623 -8.785,1.751 -2.627,1.129 -4.865,2.666 -6.713,4.612 -1.849,1.946 -3.26,4.193 -4.232,6.742 -0.973,2.549 -1.459,5.263 -1.459,8.143 0,3.152 0.505,6.061 1.517,8.727 1.012,2.665 2.461,4.98 4.349,6.946 1.887,1.965 4.105,3.493 6.654,4.583 2.549,1.088 5.342,1.634 8.377,1.634 2.529,0 4.825,-0.341 6.888,-1.022 2.062,-0.681 3.832,-1.47 5.311,-2.363 l -2.276,-5.371 c -1.167,0.817 -2.588,1.576 -4.261,2.276 -1.673,0.7 -3.502,1.052 -5.487,1.052 -2.063,0 -4.008,-0.41 -5.837,-1.227 -1.83,-0.816 -3.444,-1.966 -4.845,-3.443 -1.401,-1.48 -2.501,-3.193 -3.298,-5.138 -0.798,-1.946 -1.197,-4.066 -1.197,-6.362 0,-2.258 0.36,-4.369 1.08,-6.333 0.72,-1.966 1.751,-3.678 3.094,-5.137 1.343,-1.46 2.967,-2.598 4.874,-3.415 1.906,-0.817 4.047,-1.226 6.421,-1.226 2.14,0 4.047,0.331 5.72,0.992 1.673,0.662 3.055,1.401 4.145,2.219 z"
             style="fill:#ffffff;fill-opacity:1;fill-rule:nonzero;stroke:none"
             id="path472" />
        </g>
        <path
           d="m 1040.416,674.779 h 5.662 v -42.204 h -5.662 z"
           style="fill:#ffffff;fill-opacity:1;fill-rule:nonzero;stroke:none"
           id="path474" />
        <g
           id="g476"
           transform="translate(1094.759,631.2322)">
          <path
             d="m 0,0 -32.63,33.098 1.635,-0.409 0.116,-31.346 h -5.662 V 44.83 h 0.292 L -4.028,11.616 -5.312,11.908 -5.429,43.547 H 0.234 L 0.234,0 Z"
             style="fill:#ffffff;fill-opacity:1;fill-rule:nonzero;stroke:none"
             id="path478" />
        </g>
        <g
           id="g480"
           transform="translate(1128.9063,667.2485)">
          <path
             d="m 0,0 c -1.44,0.739 -3.016,1.381 -4.728,1.926 -1.713,0.545 -3.386,0.817 -5.02,0.817 -2.258,0 -4.057,-0.525 -5.4,-1.575 -1.342,-1.052 -2.013,-2.453 -2.013,-4.204 0,-1.322 0.438,-2.442 1.313,-3.356 0.876,-0.915 2.004,-1.703 3.386,-2.364 1.38,-0.662 2.85,-1.285 4.407,-1.868 1.284,-0.467 2.568,-1.022 3.852,-1.664 1.284,-0.642 2.442,-1.429 3.473,-2.363 1.031,-0.935 1.848,-2.083 2.452,-3.444 0.603,-1.363 0.905,-3.036 0.905,-5.02 0,-2.257 -0.555,-4.3 -1.664,-6.129 -1.109,-1.83 -2.695,-3.27 -4.757,-4.32 -2.063,-1.051 -4.534,-1.577 -7.414,-1.577 -1.829,0 -3.589,0.206 -5.282,0.614 -1.693,0.408 -3.26,0.963 -4.699,1.663 -1.44,0.701 -2.724,1.421 -3.853,2.161 l 2.511,4.436 c 0.933,-0.663 2.003,-1.294 3.21,-1.897 1.206,-0.605 2.47,-1.08 3.794,-1.431 1.323,-0.35 2.607,-0.525 3.852,-0.525 1.362,0 2.686,0.233 3.97,0.7 1.284,0.468 2.354,1.206 3.21,2.219 0.856,1.011 1.284,2.353 1.284,4.027 0,1.401 -0.379,2.588 -1.138,3.561 -0.759,0.972 -1.751,1.799 -2.977,2.481 -1.225,0.68 -2.559,1.293 -3.998,1.838 -1.363,0.467 -2.714,1.012 -4.057,1.635 -1.342,0.622 -2.588,1.371 -3.736,2.247 -1.148,0.875 -2.082,1.955 -2.802,3.24 -0.72,1.284 -1.079,2.84 -1.079,4.67 0,2.217 0.534,4.153 1.605,5.807 1.069,1.655 2.539,2.958 4.407,3.912 1.868,0.953 4.007,1.468 6.421,1.546 2.723,0 5.126,-0.331 7.209,-0.992 2.081,-0.662 3.92,-1.459 5.516,-2.393 z"
             style="fill:#ffffff;fill-opacity:1;fill-rule:nonzero;stroke:none"
             id="path482" />
        </g>
        <path
           d="m 1141.047,674.779 h 5.662 v -42.204 h -5.662 z"
           style="fill:#ffffff;fill-opacity:1;fill-rule:nonzero;stroke:none"
           id="path484" />
        <g
           id="g486"
           transform="translate(1191.8887,636.1939)">
          <path
             d="m 0,0 c -0.584,-0.506 -1.401,-1.002 -2.452,-1.488 -1.05,-0.487 -2.209,-0.924 -3.473,-1.313 -1.265,-0.39 -2.559,-0.701 -3.881,-0.934 -1.324,-0.234 -2.589,-0.351 -3.794,-0.351 -3.386,0 -6.441,0.526 -9.165,1.577 -2.724,1.05 -5.049,2.509 -6.976,4.378 -1.926,1.867 -3.395,4.065 -4.407,6.595 -1.012,2.53 -1.517,5.253 -1.517,8.172 0,3.58 0.573,6.752 1.722,9.515 1.147,2.763 2.714,5.108 4.699,7.034 1.984,1.926 4.29,3.385 6.917,4.378 2.626,0.992 5.379,1.488 8.26,1.488 2.489,0 4.786,-0.283 6.888,-0.846 2.101,-0.564 3.949,-1.313 5.545,-2.247 l -1.868,-5.195 c -0.818,0.427 -1.8,0.846 -2.948,1.255 -1.149,0.408 -2.326,0.739 -3.531,0.992 -1.207,0.253 -2.316,0.379 -3.328,0.379 -2.53,0 -4.796,-0.379 -6.8,-1.139 -2.005,-0.758 -3.736,-1.848 -5.195,-3.268 -1.459,-1.421 -2.579,-3.133 -3.356,-5.136 -0.78,-2.006 -1.168,-4.253 -1.168,-6.742 0,-2.258 0.388,-4.349 1.168,-6.276 0.777,-1.926 1.897,-3.581 3.356,-4.961 1.459,-1.382 3.181,-2.442 5.166,-3.181 1.985,-0.74 4.203,-1.109 6.654,-1.109 1.401,0 2.802,0.135 4.203,0.408 1.401,0.272 2.588,0.701 3.561,1.285 v 8.288 h -8.347 v 5.487 H 0 Z"
             style="fill:#ffffff;fill-opacity:1;fill-rule:nonzero;stroke:none"
             id="path488" />
        </g>
        <g
           id="g490"
           transform="translate(1236.0754,674.7788)">
          <path
             d="M 0,0 V -42.204 H -5.662 V -23.7 h -22.065 v -18.504 h -5.661 V 0 h 5.661 v -18.271 h 22.065 l 0,18.271 z"
             style="fill:#ffffff;fill-opacity:1;fill-rule:nonzero;stroke:none"
             id="path492" />
        </g>
        <g
           id="g494"
           transform="translate(1245.0649,674.7788)">
          <path
             d="M 0,0 H 28.077 V -5.429 H 16.753 V -42.204 H 11.091 V -5.429 L 0,-5.429 Z"
             style="fill:#ffffff;fill-opacity:1;fill-rule:nonzero;stroke:none"
             id="path496" />
        </g>
        <g
           id="g498"
           transform="translate(1303.962,667.2485)">
          <path
             d="m 0,0 c -1.44,0.739 -3.016,1.381 -4.728,1.926 -1.713,0.545 -3.385,0.817 -5.02,0.817 -2.257,0 -4.057,-0.525 -5.4,-1.575 -1.342,-1.052 -2.013,-2.453 -2.013,-4.204 0,-1.322 0.438,-2.442 1.313,-3.356 0.876,-0.915 2.004,-1.703 3.386,-2.364 1.38,-0.662 2.85,-1.285 4.407,-1.868 1.284,-0.467 2.568,-1.022 3.852,-1.664 1.284,-0.642 2.442,-1.429 3.473,-2.363 1.031,-0.935 1.848,-2.083 2.452,-3.444 0.603,-1.363 0.905,-3.036 0.905,-5.02 0,-2.257 -0.555,-4.3 -1.664,-6.129 -1.109,-1.83 -2.695,-3.27 -4.757,-4.32 -2.063,-1.051 -4.534,-1.577 -7.414,-1.577 -1.829,0 -3.589,0.206 -5.282,0.614 -1.692,0.408 -3.26,0.963 -4.699,1.663 -1.44,0.701 -2.724,1.421 -3.852,2.161 l 2.51,4.436 c 0.933,-0.663 2.003,-1.294 3.21,-1.897 1.206,-0.605 2.471,-1.08 3.794,-1.431 1.323,-0.35 2.607,-0.525 3.853,-0.525 1.361,0 2.685,0.233 3.969,0.7 1.284,0.468 2.354,1.206 3.21,2.219 0.856,1.011 1.285,2.353 1.285,4.027 0,1.401 -0.379,2.588 -1.139,3.561 -0.759,0.972 -1.751,1.799 -2.977,2.481 -1.225,0.68 -2.559,1.293 -3.998,1.838 -1.363,0.467 -2.714,1.012 -4.057,1.635 -1.342,0.622 -2.588,1.371 -3.736,2.247 -1.148,0.875 -2.082,1.955 -2.802,3.24 -0.72,1.284 -1.079,2.84 -1.079,4.67 0,2.217 0.534,4.153 1.605,5.807 1.07,1.655 2.539,2.958 4.407,3.912 1.868,0.953 4.007,1.468 6.421,1.546 2.723,0 5.126,-0.331 7.209,-0.992 2.081,-0.662 3.92,-1.459 5.516,-2.393 z"
             style="fill:#ffffff;fill-opacity:1;fill-rule:nonzero;stroke:none"
             id="path500" />
        </g>
        <g
           id="g502"
           transform="translate(952.1521,749.3722)">
          <path
             d="M 0,0 C 9.748,14.909 15.021,38.504 15.651,70.908 H 15.25 v 210.07 h -36.484 v 12.451 H 15.25 v 98.391 c 0,38.057 8.199,65.21 24.619,81.446 13.03,12.894 32.477,20.757 58.28,23.634 -21.767,5.836 -44.946,8.221 -68.922,6.495 -103.36,-7.442 -184.605,-89.683 -190.902,-193.119 -3.77,-61.93 19.769,-118.402 59.711,-158.552 38.801,-39.002 59.85,-89.241 65.538,-143.146 1.937,-18.356 25.713,-24.468 36.035,-9.167 C -0.26,-0.394 -0.13,-0.198 0,0"
             style="fill:#ffffff;fill-opacity:1;fill-rule:nonzero;stroke:none"
             id="path504" />
        </g>
        <g
           id="g506"
           transform="translate(1083.9833,1235.9124)">
          <path
             d="m 0,0 c -20.847,9.172 -45.601,3.264 -58.852,-15.26 -0.394,-0.551 -0.78,-1.112 -1.156,-1.683 -10.48,-15.893 -15.72,-41.818 -15.72,-77.777 l 0.149,-98.391 h 36.806 v -12.451 h -36.795 l 0.069,-39.839 0.011,-12.67 0.23,-150.681 c 0,-38.057 -8.198,-65.209 -24.619,-81.446 -9.394,-9.295 -22.127,-15.974 -38.161,-20.063 H -3.76 v 0.706 c 0,66.038 24.589,130.077 70.173,177.86 35.355,37.059 57.066,87.241 57.066,142.508 C 123.479,-104.657 72.709,-31.988 0,0"
             style="fill:#ffffff;fill-opacity:1;fill-rule:nonzero;stroke:none"
             id="path508" />
        </g>
        <g
           id="g510"
           transform="translate(679.4813,1130.7698)">
          <path
             d="m 0,0 10.466,30.348 6.578,-2.269 -8.099,-23.486 16.271,-5.612 7.099,20.587 6.579,-2.27 -7.099,-20.586 21.717,-7.49 -2.366,-6.86 z"
             style="fill:#ffffff;fill-opacity:1;fill-rule:nonzero;stroke:none"
             id="path512" />
        </g>
        <g
           id="g514"
           transform="translate(712.1899,1204.9634)">
          <path
             d="M 0,0 3.763,6.207 50.026,-21.844 46.263,-28.05 Z"
             style="fill:#ffffff;fill-opacity:1;fill-rule:nonzero;stroke:none"
             id="path516" />
        </g>
        <g
           id="g518"
           transform="translate(786.0143,1226.7415)">
          <path
             d="m 0,0 6.141,6.241 c 2.065,2.097 3.66,4.359 4.788,6.784 1.126,2.425 1.742,4.9 1.845,7.423 0.104,2.523 -0.358,5.025 -1.383,7.503 -1.026,2.479 -2.676,4.837 -4.951,7.077 -2.347,2.309 -4.804,3.956 -7.369,4.941 -2.565,0.985 -5.117,1.396 -7.656,1.236 -2.538,-0.162 -4.958,-0.79 -7.261,-1.884 -2.301,-1.095 -4.362,-2.567 -6.181,-4.415 l -6.614,-6.721 z m -0.131,-10.054 -38.561,37.947 10.34,10.508 c 3.779,3.839 7.559,6.523 11.338,8.054 3.78,1.529 7.453,2.166 11.018,1.914 3.565,-0.254 6.87,-1.144 9.916,-2.672 3.047,-1.529 5.742,-3.446 8.089,-5.756 2.916,-2.87 5.031,-5.948 6.344,-9.235 1.315,-3.289 1.923,-6.618 1.826,-9.987 -0.095,-3.37 -0.837,-6.63 -2.223,-9.78 C 16.571,7.788 14.618,4.933 12.099,2.373 Z"
             style="fill:#ffffff;fill-opacity:1;fill-rule:nonzero;stroke:none"
             id="path520" />
        </g>
        <g
           id="g522"
           transform="translate(820.2522,1317.1086)">
          <path
             d="m 0,0 30.581,17.369 3.437,-6.051 -24.27,-13.784 8.131,-14.315 21.667,12.307 3.473,-6.117 -21.666,-12.307 8.241,-14.509 25.181,14.302 3.437,-6.051 -31.492,-17.887 z"
             style="fill:#ffffff;fill-opacity:1;fill-rule:nonzero;stroke:none"
             id="path524" />
        </g>
        <g
           id="g526"
           transform="translate(915.1398,1321.9895)">
          <path
             d="m 0,0 c 0.582,-2.374 1.67,-4.355 3.265,-5.942 1.595,-1.586 3.48,-2.68 5.656,-3.275 2.175,-0.598 4.426,-0.612 6.751,-0.043 2.472,0.605 4.546,1.678 6.223,3.218 1.677,1.541 2.832,3.378 3.466,5.511 0.633,2.131 0.659,4.385 0.078,6.76 L 17.128,40.172 24.105,41.88 32.47,7.719 c 0.937,-3.828 0.884,-7.385 -0.161,-10.671 -1.044,-3.286 -2.879,-6.073 -5.503,-8.358 -2.626,-2.287 -5.779,-3.88 -9.461,-4.782 -3.634,-0.89 -7.143,-0.928 -10.527,-0.111 -3.384,0.813 -6.298,2.437 -8.742,4.87 -2.445,2.43 -4.135,5.561 -5.073,9.389 l -8.365,34.16 7.051,1.727 z"
             style="fill:#ffffff;fill-opacity:1;fill-rule:nonzero;stroke:none"
             id="path528" />
        </g>
        <g
           id="g530"
           transform="translate(1020.9705,1358.4856)">
          <path
             d="m 0,0 c -1.822,0.993 -3.822,1.865 -5.999,2.617 -2.178,0.753 -4.313,1.154 -6.408,1.206 -2.892,0.071 -5.215,-0.546 -6.969,-1.85 -1.754,-1.304 -2.658,-3.079 -2.713,-5.323 -0.041,-1.696 0.484,-3.143 1.578,-4.342 1.093,-1.2 2.514,-2.246 4.264,-3.136 1.75,-0.893 3.612,-1.735 5.589,-2.533 1.632,-0.639 3.26,-1.39 4.885,-2.254 1.626,-0.863 3.085,-1.909 4.377,-3.139 1.292,-1.229 2.302,-2.726 3.034,-4.49 0.729,-1.766 1.064,-3.919 1.001,-6.463 -0.071,-2.892 -0.846,-5.492 -2.324,-7.801 -1.48,-2.31 -3.557,-4.105 -6.233,-5.386 -2.677,-1.282 -5.86,-1.877 -9.55,-1.787 -2.345,0.057 -4.595,0.375 -6.751,0.952 -2.157,0.577 -4.147,1.336 -5.97,2.28 -1.823,0.943 -3.447,1.906 -4.869,2.888 l 3.356,5.607 c 1.177,-0.878 2.528,-1.722 4.055,-2.532 1.526,-0.812 3.132,-1.462 4.818,-1.952 1.683,-0.49 3.324,-0.755 4.92,-0.795 1.745,-0.043 3.448,0.215 5.109,0.773 1.661,0.559 3.055,1.47 4.184,2.742 1.129,1.269 1.72,2.976 1.772,5.121 0.045,1.795 -0.404,3.328 -1.346,4.6 -0.942,1.269 -2.188,2.36 -3.737,3.272 -1.55,0.911 -3.239,1.738 -5.067,2.482 -1.731,0.642 -3.447,1.382 -5.147,2.222 -1.701,0.839 -3.274,1.84 -4.717,2.998 -1.444,1.158 -2.607,2.571 -3.489,4.239 -0.883,1.669 -1.295,3.674 -1.237,6.02 0.069,2.842 0.815,5.305 2.239,7.392 1.424,2.086 3.348,3.709 5.772,4.874 2.424,1.162 5.182,1.756 8.277,1.78 3.49,-0.086 6.56,-0.586 9.208,-1.499 C -1.442,7.87 0.889,6.79 2.906,5.543 Z"
             style="fill:#ffffff;fill-opacity:1;fill-rule:nonzero;stroke:none"
             id="path532" />
        </g>
        <g
           id="g534"
           transform="translate(1131.4738,1341.5258)">
          <path
             d="M 0,0 6.517,-3.198 -14.246,-45.522 10.41,-57.616 7.345,-63.865 -23.827,-48.572 Z"
             style="fill:#ffffff;fill-opacity:1;fill-rule:nonzero;stroke:none"
             id="path536" />
        </g>
        <g
           id="g538"
           transform="translate(1189.3842,1266.7874)">
          <path
             d="M 0,0 15.093,-13.319 12.73,-19.615 -5.73,-3.327 Z m -23.946,-6.215 54.955,26.655 0.336,-0.296 -19.549,-57.896 -6.228,5.495 16.512,45.406 6.1,-0.891 -46.739,-23.227 z"
             style="fill:#ffffff;fill-opacity:1;fill-rule:nonzero;stroke:none"
             id="path540" />
        </g>
        <g
           id="g542"
           transform="translate(1257.4086,1205.5149)">
          <path
             d="m 0,0 c 1.646,-2.5 3.528,-3.858 5.644,-4.078 2.115,-0.22 4.151,0.315 6.11,1.605 2.416,1.591 3.686,3.474 3.809,5.645 0.122,2.172 -0.625,4.486 -2.244,6.945 L 9.45,15.99 -4.486,6.812 Z m -19.646,-13.297 c 1.125,-1.708 2.391,-3.085 3.796,-4.131 1.406,-1.045 2.907,-1.625 4.505,-1.737 1.597,-0.113 3.166,0.339 4.708,1.353 1.75,1.154 2.816,2.527 3.198,4.123 0.383,1.596 0.313,3.268 -0.21,5.014 -0.523,1.746 -1.293,3.39 -2.307,4.931 l -4.405,6.688 -13.935,-9.179 z m 38.571,27.554 c 2.99,-4.541 4.416,-8.725 4.278,-12.549 -0.14,-3.825 -2.146,-7.014 -6.021,-9.565 -2.416,-1.592 -4.856,-2.422 -7.319,-2.492 -2.464,-0.068 -4.833,0.535 -7.108,1.815 -2.276,1.279 -4.363,3.175 -6.258,5.69 l 2.611,2.974 c 1.919,-3.095 3.176,-6.181 3.767,-9.257 0.592,-3.075 0.458,-5.91 -0.4,-8.507 -0.859,-2.596 -2.517,-4.704 -4.975,-6.323 -2.249,-1.481 -4.445,-2.344 -6.583,-2.589 -2.139,-0.244 -4.193,0.017 -6.159,0.783 -1.968,0.764 -3.775,1.874 -5.42,3.33 -1.646,1.455 -3.113,3.162 -4.402,5.12 l -8.85,13.436 45.183,29.758 z"
             style="fill:#ffffff;fill-opacity:1;fill-rule:nonzero;stroke:none"
             id="path544" />
        </g>
        <g
           id="g546"
           transform="translate(1309.3217,1127.2732)">
          <path
             d="m 0,0 c 0.297,2.053 0.421,4.232 0.371,6.534 -0.051,2.304 -0.416,4.446 -1.095,6.428 -0.939,2.738 -2.323,4.701 -4.156,5.893 -1.832,1.192 -3.809,1.424 -5.933,0.696 -1.605,-0.55 -2.781,-1.547 -3.525,-2.988 -0.745,-1.442 -1.232,-3.138 -1.46,-5.089 -0.229,-1.95 -0.373,-3.989 -0.433,-6.121 -0.033,-1.75 -0.172,-3.539 -0.417,-5.363 -0.245,-1.824 -0.719,-3.555 -1.423,-5.195 -0.705,-1.637 -1.757,-3.106 -3.158,-4.403 -1.402,-1.298 -3.305,-2.359 -5.711,-3.184 -2.738,-0.937 -5.446,-1.115 -8.124,-0.529 -2.681,0.584 -5.085,1.91 -7.216,3.974 -2.132,2.064 -3.796,4.843 -4.992,8.334 -0.761,2.22 -1.245,4.439 -1.452,6.661 -0.209,2.223 -0.187,4.354 0.064,6.39 0.251,2.038 0.59,3.894 1.018,5.57 l 6.423,-1.2 c -0.415,-1.407 -0.737,-2.968 -0.966,-4.681 -0.232,-1.714 -0.283,-3.446 -0.158,-5.197 0.125,-1.749 0.446,-3.379 0.965,-4.89 0.565,-1.651 1.398,-3.16 2.498,-4.522 1.101,-1.364 2.441,-2.354 4.024,-2.972 1.583,-0.617 3.389,-0.579 5.419,0.117 1.699,0.582 2.98,1.534 3.845,2.86 0.863,1.325 1.454,2.872 1.771,4.641 0.316,1.769 0.505,3.641 0.568,5.613 0,1.847 0.099,3.712 0.296,5.599 0.197,1.887 0.588,3.709 1.173,5.465 0.584,1.756 1.506,3.337 2.764,4.745 1.258,1.406 2.995,2.489 5.214,3.249 2.69,0.922 5.259,1.079 7.711,0.467 2.45,-0.61 4.641,-1.85 6.574,-3.719 C 2.411,21.314 3.925,18.934 5.024,16.04 6.156,12.737 6.753,9.684 6.816,6.885 6.878,4.085 6.676,1.525 6.207,-0.799 Z"
             style="fill:#ffffff;fill-opacity:1;fill-rule:nonzero;stroke:none"
             id="path548" />
        </g>
        <g
           id="g550"
           transform="translate(703.1277,1069.8511)">
          <path
             d="m 0,0 c 0,-7.191 -5.83,-13.021 -13.021,-13.021 -7.192,0 -13.022,5.83 -13.022,13.021 0,7.191 5.83,13.021 13.022,13.021 C -5.83,13.021 0,7.191 0,0"
             style="fill:#ffffff;fill-opacity:1;fill-rule:nonzero;stroke:none"
             id="path552" />
        </g>
        <g
           id="g554"
           transform="translate(1314.3448,1069.8511)">
          <path
             d="m 0,0 c 0,-7.191 -5.83,-13.021 -13.021,-13.021 -7.192,0 -13.022,5.83 -13.022,13.021 0,7.191 5.83,13.021 13.022,13.021 C -5.83,13.021 0,7.191 0,0"
             style="fill:#ffffff;fill-opacity:1;fill-rule:nonzero;stroke:none"
             id="path556" />
        </g>
      </g>
    </g>
  </g>
</svg>
